<svg width="83" height="83" viewBox="0 0 83 83" fill="none" xmlns="http://www.w3.org/2000/svg">
<rect width="83" height="83" rx="30" fill="#FEA666"/>
<path d="M38.8906 26.6871C38.847 26.2526 38.895 25.8138 39.0314 25.3989C39.1678 24.984 39.3896 24.6024 39.6826 24.2785C39.9755 23.9547 40.3331 23.6958 40.7323 23.5187C41.1314 23.3415 41.5633 23.25 42 23.25C42.4367 23.25 42.8686 23.3415 43.2677 23.5187C43.6669 23.6958 44.0245 23.9547 44.3174 24.2785C44.6104 24.6024 44.8322 24.984 44.9686 25.3989C45.1051 25.8138 45.153 26.2526 45.1094 26.6871L43.8969 46.5309C43.85 47.0014 43.63 47.4378 43.2794 47.7551C42.9289 48.0725 42.4729 48.2483 42 48.2483C41.5271 48.2483 41.0711 48.0725 40.7206 47.7551C40.37 47.4378 40.15 47.0014 40.1031 46.5309L38.8906 26.6871ZM38.875 54.4996C38.875 53.6708 39.2042 52.876 39.7903 52.2899C40.3763 51.7039 41.1712 51.3746 42 51.3746C42.8288 51.3746 43.6237 51.7039 44.2097 52.2899C44.7958 52.876 45.125 53.6708 45.125 54.4996C45.125 55.3284 44.7958 56.1233 44.2097 56.7093C43.6237 57.2954 42.8288 57.6246 42 57.6246C41.1712 57.6246 40.3763 57.2954 39.7903 56.7093C39.2042 56.1233 38.875 55.3284 38.875 54.4996Z" fill="white"/>
</svg>
