<svg width="8" height="35" viewBox="0 0 8 35" fill="none" xmlns="http://www.w3.org/2000/svg">
<path d="M0.890625 3.68711C0.84701 3.25259 0.89495 2.81375 1.03135 2.3989C1.16776 1.98405 1.3896 1.60239 1.68257 1.27854C1.97554 0.954691 2.33313 0.695842 2.73229 0.518686C3.13144 0.34153 3.5633 0.25 4 0.25C4.4367 0.25 4.86856 0.34153 5.26771 0.518686C5.66687 0.695842 6.02446 0.954691 6.31743 1.27854C6.6104 1.60239 6.83224 1.98405 6.96865 2.3989C7.10505 2.81375 7.15299 3.25259 7.10937 3.68711L5.89688 23.5309C5.85004 24.0014 5.62997 24.4378 5.27942 24.7551C4.92888 25.0725 4.47288 25.2483 4 25.2483C3.52712 25.2483 3.07112 25.0725 2.72058 24.7551C2.37003 24.4378 2.14997 24.0014 2.10313 23.5309L0.890625 3.68711ZM0.875 31.4996C0.875 30.6708 1.20424 29.876 1.79029 29.2899C2.37634 28.7039 3.1712 28.3746 4 28.3746C4.8288 28.3746 5.62366 28.7039 6.20971 29.2899C6.79576 29.876 7.125 30.6708 7.125 31.4996C7.125 32.3284 6.79576 33.1233 6.20971 33.7093C5.62366 34.2954 4.8288 34.6246 4 34.6246C3.1712 34.6246 2.37634 34.2954 1.79029 33.7093C1.20424 33.1233 0.875 32.3284 0.875 31.4996Z" fill="white"/>
</svg>
