<svg width="375" height="1430" viewBox="0 0 375 1430" fill="none" xmlns="http://www.w3.org/2000/svg">
<g clip-path="url(#clip0_4240_6591)">
<defs>
<linearGradient id="paint0_linear_4240_6591" x1="0" y1="0" x2="270.32" y2="-61.1583" gradientUnits="userSpaceOnUse">
<stop stop-color="#014440"/>
<stop offset="1" stop-color="#00927D"/>
</linearGradient>
<clipPath id="clip0_4240_6591">
<rect width="375" height="1430" fill="white"/>
</clipPath>
</defs>
<rect width="375" height="1430" fill="url(#paint0_linear_4240_6591)"/>
<g opacity="0.5">
<path opacity="0.0526316" d="M436.847 404.34C451.909 391.251 475.821 351.137 450.973 295.393C419.912 225.713 349.07 202.939 308.825 141.637C279.122 96.3922 230.569 -27.4025 269.125 -103.304" stroke="#CAD4E2" stroke-width="1.45842"/>
<path opacity="0.105263" d="M401.111 412.377C417.459 400.934 445.433 363.54 426.548 305.504C402.94 232.958 334.868 202.904 301.251 137.732C276.439 89.6293 241.093 -38.5623 287.371 -110.018" stroke="#CAD4E2" stroke-width="1.45842"/>
<path opacity="0.157895" d="M367.929 423.686C385.384 414.015 417.114 379.75 404.398 320.057C388.503 245.442 323.945 208.437 297.324 140.107C277.677 89.6752 255.923 -41.5089 309.417 -107.736" stroke="#CAD4E2" stroke-width="1.45842"/>
<path opacity="0.210526" d="M334.405 432.091C352.775 424.297 387.913 393.536 381.506 332.842C373.498 256.974 313.161 213.423 293.829 142.685C279.561 90.4755 271.639 -42.2639 331.763 -102.536" stroke="#CAD4E2" stroke-width="1.45842"/>
<path opacity="0.263158" d="M300.836 437.572C319.919 431.742 358.08 404.822 358.053 343.791C358.019 267.501 302.565 217.882 290.733 145.511C282 92.0961 287.997 -40.7442 354.091 -94.4018" stroke="#CAD4E2" stroke-width="1.45842"/>
<path opacity="0.315789" d="M267.511 440.134C287.099 436.33 327.865 413.547 334.217 352.847C342.158 276.971 292.194 221.828 287.992 148.617C284.891 94.5811 304.74 -36.9047 376.081 -83.3596" stroke="#CAD4E2" stroke-width="1.45842"/>
<path opacity="0.368421" d="M234.769 439.829C254.648 438.094 297.572 419.696 310.234 359.993C326.062 285.363 282.137 225.299 285.61 152.05C288.174 97.9862 321.658 -30.7044 397.465 -69.4477" stroke="#CAD4E2" stroke-width="1.45842"/>
<path opacity="0.421053" d="M202.868 436.724C222.82 437.076 267.431 423.266 286.265 365.213C309.807 292.647 272.401 228.321 283.512 155.836C291.713 102.336 338.465 -22.1495 417.906 -52.7566" stroke="#CAD4E2" stroke-width="1.45842"/>
<path opacity="0.473684" d="M172.126 430.922C191.931 433.357 237.742 424.287 262.541 368.52C293.539 298.813 263.062 230.928 281.689 160.002C295.437 107.652 354.946 -11.2641 437.151 -33.3997" stroke="#CAD4E2" stroke-width="1.45842"/>
<path opacity="0.526316" d="M142.795 422.565C162.238 427.057 208.746 422.825 239.238 369.956C277.353 303.87 254.138 233.172 280.077 164.581C299.221 113.956 370.835 1.91099 454.903 -11.5106" stroke="#CAD4E2" stroke-width="1.45842"/>
<path opacity="0.578947" d="M115.163 411.813C134.029 418.313 180.725 418.965 216.576 369.573C261.391 307.834 245.693 235.096 278.659 169.592C302.991 121.245 385.924 17.3001 470.935 12.7396" stroke="#CAD4E2" stroke-width="1.45842"/>
<path opacity="0.631579" d="M89.4319 398.854C107.515 407.29 153.887 412.82 194.705 367.446C245.727 310.729 237.718 236.749 277.351 175.05C306.603 129.511 399.947 34.8042 484.969 39.1547" stroke="#CAD4E2" stroke-width="1.45842"/>
<path opacity="0.684211" d="M65.8657 383.901C82.9684 394.182 128.508 404.528 173.845 363.67C230.516 312.597 230.285 238.185 276.15 180.967C310.001 138.735 412.733 54.3039 496.835 67.5178" stroke="#CAD4E2" stroke-width="1.45842"/>
<path opacity="0.736842" d="M44.6263 367.193C60.5607 379.205 104.769 394.255 154.129 358.359C215.828 313.49 223.376 239.462 274.971 187.351C313.051 148.889 424.046 75.6589 506.306 97.5914" stroke="#CAD4E2" stroke-width="1.45842"/>
<path opacity="0.789474" d="M25.8946 348.978C40.4861 362.59 82.8794 382.178 135.721 351.639C201.772 313.465 217.017 240.631 273.776 194.199C315.668 159.928 433.71 98.7012 513.226 129.112" stroke="#CAD4E2" stroke-width="1.45842"/>
<path opacity="0.842105" d="M9.82843 329.53C22.9172 344.592 63.0307 368.505 118.775 343.656C188.455 312.595 211.229 241.754 272.531 201.509C317.776 171.805 441.57 123.252 517.472 161.808" stroke="#CAD4E2" stroke-width="1.45842"/>
<path opacity="0.894737" d="M-3.47221 309.133C7.97041 325.481 45.3647 353.455 103.401 334.57C175.946 310.962 206 242.89 271.173 209.273C319.275 184.461 447.467 149.114 518.922 195.393" stroke="#CAD4E2" stroke-width="1.45842"/>
<path opacity="0.947368" d="M-13.9253 288.08C-4.25419 305.534 30.0111 337.264 89.7033 324.548C164.319 308.653 201.324 244.095 269.653 217.475C320.086 197.827 451.27 176.074 517.497 229.568" stroke="#CAD4E2" stroke-width="1.45842"/>
<path d="M-21.4741 266.678C-13.6805 285.048 17.0804 320.186 77.7748 313.779C153.643 305.771 197.193 245.434 267.931 226.102C320.141 211.834 452.88 203.912 513.153 264.035" stroke="#CAD4E2" stroke-width="1.45842"/>
</g>
</g>
</svg>
