<svg width="18" height="18" viewBox="0 0 18 18" fill="none" xmlns="http://www.w3.org/2000/svg">
<path fill-rule="evenodd" clip-rule="evenodd" d="M16.9932 2.52642C17.093 2.42677 17.1721 2.30845 17.2262 2.17821C17.2802 2.04797 17.3081 1.90835 17.3082 1.76735C17.3083 1.62634 17.2806 1.48669 17.2267 1.35638C17.1728 1.22608 17.0938 1.10766 16.9941 1.00789C16.8945 0.908116 16.7762 0.828951 16.6459 0.774909C16.5157 0.720867 16.3761 0.693007 16.2351 0.692921C16.0941 0.692834 15.9544 0.720522 15.8241 0.774404C15.6938 0.828285 15.5754 0.907305 15.4756 1.00695L9.00014 7.48242L2.52654 1.00695C2.32505 0.805459 2.05176 0.692261 1.76681 0.692261C1.48185 0.692261 1.20857 0.805459 1.00707 1.00695C0.805581 1.20845 0.692383 1.48173 0.692383 1.76669C0.692383 2.05164 0.805581 2.32493 1.00707 2.52642L7.48254 9.00002L1.00707 15.4736C0.907305 15.5734 0.828163 15.6918 0.774168 15.8222C0.720173 15.9525 0.692383 16.0923 0.692383 16.2334C0.692383 16.3744 0.720173 16.5142 0.774168 16.6445C0.828163 16.7749 0.907305 16.8933 1.00707 16.9931C1.20857 17.1946 1.48185 17.3078 1.76681 17.3078C1.9079 17.3078 2.04762 17.28 2.17797 17.226C2.30833 17.172 2.42677 17.0929 2.52654 16.9931L9.00014 10.5176L15.4756 16.9931C15.6771 17.1943 15.9503 17.3073 16.2351 17.3071C16.5198 17.3069 16.7929 17.1936 16.9941 16.9922C17.1954 16.7907 17.3083 16.5175 17.3082 16.2327C17.308 15.9479 17.1947 15.6749 16.9932 15.4736L10.5177 9.00002L16.9932 2.52642Z" fill="#D6D6D6"/>
</svg>
