<svg width="10" height="10" viewBox="0 0 10 10" fill="none" xmlns="http://www.w3.org/2000/svg">
<g opacity="0.7">
<path fill-rule="evenodd" clip-rule="evenodd" d="M7.85468 2.68802C7.89031 2.65243 7.91859 2.61017 7.93789 2.56365C7.95719 2.51714 7.96714 2.46728 7.96717 2.41692C7.9672 2.36656 7.95731 2.31668 7.93807 2.27015C7.91882 2.22361 7.8906 2.18131 7.85502 2.14568C7.81943 2.11005 7.77717 2.08178 7.73065 2.06248C7.68414 2.04318 7.63428 2.03323 7.58392 2.03319C7.53356 2.03316 7.48368 2.04305 7.43714 2.0623C7.39061 2.08154 7.34831 2.10976 7.31268 2.14535L5.00002 4.45802L2.68802 2.14535C2.61605 2.07339 2.51845 2.03296 2.41668 2.03296C2.31491 2.03296 2.21731 2.07339 2.14535 2.14535C2.07339 2.21731 2.03296 2.31491 2.03296 2.41668C2.03296 2.51845 2.07339 2.61605 2.14535 2.68802L4.45802 5.00002L2.14535 7.31202C2.10972 7.34765 2.08145 7.38995 2.06217 7.4365C2.04288 7.48306 2.03296 7.53296 2.03296 7.58335C2.03296 7.63374 2.04288 7.68364 2.06217 7.73019C2.08145 7.77675 2.10972 7.81905 2.14535 7.85468C2.21731 7.92664 2.31491 7.96707 2.41668 7.96707C2.46707 7.96707 2.51697 7.95715 2.56353 7.93786C2.61008 7.91858 2.65238 7.89031 2.68802 7.85468L5.00002 5.54202L7.31268 7.85468C7.38464 7.92655 7.48221 7.9669 7.58392 7.96684C7.68563 7.96677 7.78314 7.92631 7.85502 7.85435C7.92689 7.78239 7.96723 7.68482 7.96717 7.58311C7.96711 7.48141 7.92664 7.38389 7.85468 7.31202L5.54202 5.00002L7.85468 2.68802Z" fill="white"/>
</g>
</svg>
