<svg width="24" height="26" viewBox="0 0 24 26" fill="none" xmlns="http://www.w3.org/2000/svg">
<path fill-rule="evenodd" clip-rule="evenodd" d="M22.9914 10.4174H15.515V0.597937C15.515 0.270582 15.7968 0 16.1404 0H17.2599C17.2625 1.60899 17.9309 3.15155 19.1224 4.29186C20.3164 5.43096 21.9312 6.06997 23.6168 6.06997V10.4174H22.9914ZM23.6168 13.883C23.6168 17.978 22.6388 21.0305 20.6803 23.0188C18.7231 25.0083 15.7007 26 11.6246 26C7.81499 26 4.92527 25.0083 2.95415 23.0188C0.984297 21.0293 0 18.0323 0 14.0219V0.570154C0 0.256086 0.266607 0 0.59639 0H7.50416C7.83268 0.00241591 8.10181 0.257294 8.10181 0.570154V14.3155C8.10181 15.951 8.41896 17.2133 9.0621 18.1C10.059 19.3611 11.8419 19.7827 13.3354 19.111C13.8168 18.8936 14.2401 18.5747 14.5737 18.1809C15.2042 17.3462 15.5163 16.1189 15.5163 14.4918V11.9201H23.6181L23.6168 13.883Z" fill="#223566"/>
<path fill-rule="evenodd" clip-rule="evenodd" d="M18.8685 0H23.0066C23.3528 0 23.632 0.269374 23.632 0.597937V4.55882C21.0039 4.55882 18.8697 2.521 18.8697 0.00483181V0L18.8685 0Z" fill="#FE8700"/>
</svg>
