<svg width="18" height="18" viewBox="0 0 18 18" fill="none" xmlns="http://www.w3.org/2000/svg">
<defs>
<linearGradient id="paint0_linear_1102_2697" x1="4.59375" y1="-0.00195312" x2="18.1098" y2="3.44916" gradientUnits="userSpaceOnUse">
<stop stop-color="#014440"/>
<stop offset="1" stop-color="#00927D"/>
</linearGradient>
<clipPath id="clip0_1102_2697">
<rect width="18" height="18" fill="white"/>
</clipPath>
</defs>
<g clip-path="url(#clip0_1102_2697)">
<path d="M14.4032 11.6035C14.4032 7.76755 7.33125 8.01805 7.33125 5.70205C7.33125 4.58105 8.40375 4.03355 9.64775 4.03355C11.7397 4.03355 12.1122 5.37755 13.0597 5.37755C13.7307 5.37755 14.0537 4.95505 14.0537 4.48155C14.0537 3.38105 12.3852 2.54805 10.7852 2.25955V1.19755C10.7852 0.87942 10.6589 0.574322 10.4339 0.349372C10.209 0.124422 9.90388 -0.00195312 9.58575 -0.00195312C9.26762 -0.00195312 8.96252 0.124422 8.73758 0.349372C8.51263 0.574322 8.38625 0.87942 8.38625 1.19755V2.29705C6.64175 2.69405 5.14125 3.90405 5.14125 5.87655C5.14125 9.56105 12.2122 9.41205 12.2122 12C12.2122 12.8965 11.2417 13.793 9.64775 13.793C7.25725 13.793 6.46075 12.175 5.48975 12.175C5.01675 12.175 4.59375 12.573 4.59375 13.173C4.59375 14.126 6.19125 15.273 8.38775 15.5935L8.38625 15.601V16.7995C8.39526 17.1118 8.52565 17.4083 8.74971 17.6259C8.97377 17.8436 9.27386 17.9654 9.58625 17.9654C9.89864 17.9654 10.1987 17.8436 10.4228 17.6259C10.6469 17.4083 10.7772 17.1118 10.7862 16.7995V15.601C10.7862 15.587 10.7792 15.576 10.7782 15.5635C12.7547 15.1945 14.4032 13.906 14.4032 11.6035V11.6035Z" fill="url(#paint0_linear_1102_2697)"/>
</g>
</svg>
