<svg width="20" height="20" viewBox="0 0 20 20" fill="none" xmlns="http://www.w3.org/2000/svg">
<defs>
<linearGradient id="paint0_linear_1_2142" x1="30.7283" y1="7.13883" x2="28.914" y2="21.0303" gradientUnits="userSpaceOnUse">
<stop stop-color="#82D66E"/>
<stop offset="1" stop-color="#499A36"/>
</linearGradient>
</defs>
<path d="M17.0838 8.84487C17.1381 8.89795 17.1813 8.96138 17.2107 9.03141C17.2401 9.10145 17.2552 9.17667 17.2551 9.25264C17.255 9.3286 17.2397 9.40378 17.21 9.47372C17.1804 9.54366 17.137 9.60696 17.0825 9.65987L10.4363 16.1374C10.3195 16.2511 10.163 16.3148 10 16.3148C9.83702 16.3148 9.68048 16.2511 9.56376 16.1374L2.91751 9.65987C2.86308 9.60688 2.81982 9.54351 2.79028 9.47353C2.76074 9.40354 2.74553 9.32834 2.74553 9.25237C2.74553 9.1764 2.76074 9.10121 2.79028 9.03122C2.81982 8.96123 2.86308 8.89787 2.91751 8.84487C3.02913 8.73584 3.17898 8.6748 3.33501 8.6748C3.49105 8.6748 3.64089 8.73584 3.75251 8.84487L10 14.9361L16.25 8.84487C16.3616 8.73622 16.5112 8.67541 16.6669 8.67541C16.8226 8.67541 16.9722 8.73622 17.0838 8.84487ZM17.0838 3.84487C17.1381 3.89795 17.1813 3.96138 17.2107 4.03141C17.2401 4.10145 17.2552 4.17667 17.2551 4.25263C17.255 4.3286 17.2397 4.40378 17.21 4.47372C17.1804 4.54366 17.137 4.60696 17.0825 4.65987L10.4363 11.1374C10.3195 11.2511 10.163 11.3148 10 11.3148C9.83702 11.3148 9.68048 11.2511 9.56376 11.1374L2.91751 4.65987C2.86308 4.60688 2.81982 4.54351 2.79028 4.47352C2.76074 4.40354 2.74553 4.32834 2.74553 4.25237C2.74553 4.1764 2.76074 4.10121 2.79028 4.03122C2.81982 3.96123 2.86308 3.89787 2.91751 3.84487C3.02913 3.73584 3.17898 3.6748 3.33501 3.6748C3.49105 3.6748 3.64089 3.73584 3.75251 3.84487L10 9.93612L16.25 3.84487C16.3616 3.73622 16.5112 3.67541 16.6669 3.67541C16.8226 3.67541 16.9722 3.73622 17.0838 3.84487Z" fill="url(#paint0_linear_1_2142)"/>
</svg>
