<svg width="21" height="21" viewBox="0 0 21 21" fill="none" xmlns="http://www.w3.org/2000/svg">
<circle cx="10.5" cy="10.5" r="10.5" fill="#017265"/>
<path d="M6.47538 12.6629C6.44337 12.6948 6.41797 12.7327 6.40064 12.7745C6.38331 12.8162 6.37439 12.861 6.37439 12.9062C6.37439 12.9514 6.38331 12.9962 6.40064 13.038C6.41797 13.0798 6.44337 13.1177 6.47538 13.1496L8.53787 15.2121C8.60242 15.2767 8.68998 15.3129 8.78124 15.3129C8.87254 15.3129 8.96009 15.2767 9.02462 15.2121C9.08917 15.1476 9.12544 15.06 9.12544 14.9687C9.12544 14.8775 9.08917 14.7899 9.02462 14.7254L7.54856 13.25H14.2812C14.3724 13.25 14.4599 13.2138 14.5243 13.1493C14.5888 13.0849 14.625 12.9974 14.625 12.9062C14.625 12.8151 14.5888 12.7276 14.5243 12.6632C14.4599 12.5987 14.3724 12.5625 14.2812 12.5625H7.54856L9.02462 11.0871C9.08917 11.0226 9.12544 10.935 9.12544 10.8437C9.12544 10.7525 9.08917 10.6649 9.02462 10.6004C8.96009 10.5358 8.87254 10.4996 8.78124 10.4996C8.68998 10.4996 8.60242 10.5358 8.53787 10.6004L6.47538 12.6629ZM14.5287 8.33299C14.5909 8.26886 14.6257 8.18306 14.6257 8.09374C14.6257 8.00443 14.5909 7.91863 14.5287 7.85449L12.535 5.79199C12.4715 5.72636 12.3846 5.68861 12.2933 5.68706C12.2021 5.68551 12.1139 5.72029 12.0482 5.78374C11.9826 5.8472 11.9449 5.93413 11.9433 6.02541C11.9418 6.1167 11.9765 6.20486 12.04 6.27049L13.4707 7.74999H6.71944C6.62827 7.74999 6.54084 7.78621 6.47637 7.85068C6.41191 7.91514 6.37569 8.00258 6.37569 8.09374C6.37569 8.18491 6.41191 8.27235 6.47637 8.33681C6.54084 8.40128 6.62827 8.43749 6.71944 8.43749H13.4707L12.0407 9.91699C12.0088 9.94934 11.9838 9.98763 11.9668 10.0297C11.9499 10.0718 11.9414 10.1168 11.9419 10.1622C11.9425 10.2075 11.952 10.2524 11.9699 10.294C11.9878 10.3357 12.0138 10.3734 12.0464 10.405C12.079 10.4366 12.1175 10.4614 12.1597 10.478C12.2019 10.4946 12.247 10.5027 12.2923 10.5018C12.3377 10.501 12.3824 10.4911 12.424 10.4729C12.4655 10.4546 12.503 10.4283 12.5343 10.3955L14.5281 8.33299H14.5287Z" fill="white"/>
</svg>
