<svg width="41" height="41" viewBox="0 0 41 41" fill="none" xmlns="http://www.w3.org/2000/svg">
<path d="M11.9583 5.125H8.54167C7.63551 5.125 6.76647 5.48497 6.12572 6.12572C5.48497 6.76647 5.125 7.63551 5.125 8.54167V11.9583M10.6667 13.6667V17.0833M12.375 27.3333C12.375 27.3333 14.0833 29.0417 17.5 29.0417M17.5 13.6667V22.2083H15.7917M11.9583 35.875H8.54167C7.63551 35.875 6.76647 35.515 6.12572 34.8743C5.48497 34.2335 5.125 33.3645 5.125 32.4583V29.0417" stroke="#1E3B4B" stroke-width="3" stroke-linecap="round" stroke-linejoin="round"/>
<path d="M23 35V18.4286M23 12.2143C28.2 12.2143 29.5 16.3571 29.5 18.4286V30.8571M23 6C33.4 6 36 14.2857 36 18.4286M36 26.7143V24.6429" stroke="#1E3B4B" stroke-width="3" stroke-linecap="round" stroke-linejoin="round"/>
</svg>
