<svg width="24" height="24" viewBox="0 0 24 24" fill="none" xmlns="http://www.w3.org/2000/svg">
<defs>
<clipPath id="clip0_1652_4656">
<rect width="24" height="24" fill="white"/>
</clipPath>
</defs>
<g clip-path="url(#clip0_1652_4656)">
<path d="M0 5.99992V8.66658H24V5.99992C24 5.29267 23.719 4.6144 23.219 4.1143C22.7189 3.6142 22.0406 3.33325 21.3333 3.33325H2.66667C1.95942 3.33325 1.28115 3.6142 0.781049 4.1143C0.280952 4.6144 0 5.29267 0 5.99992H0Z" fill="#0099B5"/>
<path d="M24 17.9999V15.3333H0V17.9999C0 18.7072 0.280952 19.3854 0.781049 19.8855C1.28115 20.3856 1.95942 20.6666 2.66667 20.6666H21.3333C22.0406 20.6666 22.7189 20.3856 23.219 19.8855C23.719 19.3854 24 18.7072 24 17.9999Z" fill="#1EB53A"/>
<path d="M0 8.66675H24V9.66675H0V8.66675ZM0 14.3334H24V15.3334H0V14.3334Z" fill="#CE1126"/>
<path d="M0 12.0001V14.3334H24V9.66675H0V12.0001Z" fill="#EEEEEE"/>
<path d="M2.80022 6.10661C2.80028 5.61511 2.97439 5.1395 3.29168 4.76413C3.60896 4.38875 4.04893 4.13786 4.53356 4.05594C4.23522 4.0053 3.92942 4.02037 3.6375 4.10009C3.34558 4.17981 3.07457 4.32227 2.84339 4.51752C2.6122 4.71277 2.4264 4.95612 2.29895 5.23058C2.1715 5.50504 2.10547 5.804 2.10547 6.10661C2.10547 6.40922 2.1715 6.70818 2.29895 6.98264C2.4264 7.2571 2.6122 7.50045 2.84339 7.6957C3.07457 7.89096 3.34558 8.03341 3.6375 8.11313C3.92942 8.19285 4.23522 8.20792 4.53356 8.15728C4.04893 8.07536 3.60896 7.82447 3.29168 7.4491C2.97439 7.07372 2.80028 6.59812 2.80022 6.10661ZM5.92222 7.64194L5.82889 7.35461L5.73556 7.64194H5.43289L5.67756 7.81994L5.58423 8.10728L5.82889 7.92928L6.07289 8.10728L5.97956 7.81994L6.22423 7.64194H5.92222ZM7.72356 7.64194L7.63023 7.35461L7.53689 7.64194H7.23489L7.47956 7.81994L7.38623 8.10728L7.63023 7.92928L7.87489 8.10728L7.78156 7.81994L8.02623 7.64194H7.72356ZM7.63023 5.69061L7.53689 5.97794H7.23489L7.47956 6.15594L7.38623 6.44328L7.63023 6.26528L7.87489 6.44328L7.78156 6.15594L8.02623 5.97794H7.72356L7.63023 5.69061ZM9.52556 7.64194L9.43222 7.35461L9.33889 7.64194H9.03689L9.28089 7.81994L9.18756 8.10728L9.43222 7.92928L9.67689 8.10728L9.58356 7.81994L9.82756 7.64194H9.52556ZM9.43222 5.69061L9.33889 5.97794H9.03689L9.28089 6.15594L9.18756 6.44328L9.43222 6.26528L9.67689 6.44328L9.58356 6.15594L9.82756 5.97794H9.52556L9.43222 5.69061ZM9.43222 4.02661L9.33889 4.31394H9.03689L9.28089 4.49194L9.18756 4.77928L9.43222 4.60128L9.67689 4.77928L9.58356 4.49194L9.82756 4.31394H9.52556L9.43222 4.02661ZM11.3276 7.64194L11.2342 7.35461L11.1409 7.64194H10.8382L11.0829 7.81994L10.9896 8.10728L11.2342 7.92928L11.4782 8.10728L11.3849 7.81994L11.6296 7.64194H11.3276ZM11.2342 5.69061L11.1409 5.97794H10.8382L11.0829 6.15594L10.9896 6.44328L11.2342 6.26528L11.4782 6.44328L11.3849 6.15594L11.6296 5.97794H11.3276L11.2342 5.69061ZM11.2342 4.02661L11.1409 4.31394H10.8382L11.0829 4.49194L10.9896 4.77928L11.2342 4.60128L11.4782 4.77928L11.3849 4.49194L11.6296 4.31394H11.3276L11.2342 4.02661ZM13.1289 7.64194L13.0356 7.35461L12.9422 7.64194H12.6402L12.8849 7.81994L12.7916 8.10728L13.0356 7.92928L13.2802 8.10728L13.1869 7.81994L13.4316 7.64194H13.1289ZM13.0356 5.69061L12.9422 5.97794H12.6402L12.8849 6.15594L12.7916 6.44328L13.0356 6.26528L13.2802 6.44328L13.1869 6.15594L13.4316 5.97794H13.1289L13.0356 5.69061ZM13.0356 4.02661L12.9422 4.31394H12.6402L12.8849 4.49194L12.7916 4.77928L13.0356 4.60128L13.2802 4.77928L13.1869 4.49194L13.4316 4.31394H13.1289L13.0356 4.02661Z" fill="white"/>
</g>
</svg>
