<svg width="24" height="24" viewBox="0 0 24 24" fill="none" xmlns="http://www.w3.org/2000/svg">
<defs>
<clipPath id="clip0_1652_4667">
<rect width="24" height="24" fill="white"/>
</clipPath>
</defs>
<g clip-path="url(#clip0_1652_4667)">
<path d="M24 17.9999C24 18.7072 23.719 19.3854 23.219 19.8855C22.7189 20.3856 22.0406 20.6666 21.3333 20.6666H2.66667C1.95942 20.6666 1.28115 20.3856 0.781049 19.8855C0.280952 19.3854 0 18.7072 0 17.9999V15.3333H24V17.9999Z" fill="#CE2028"/>
<path d="M0 8.66675H24V15.3334H0V8.66675Z" fill="#22408C"/>
<path d="M21.3333 3.33325H2.66667C1.95942 3.33325 1.28115 3.6142 0.781049 4.1143C0.280952 4.6144 0 5.29267 0 5.99992L0 8.66658H24V5.99992C24 5.29267 23.719 4.6144 23.219 4.1143C22.7189 3.6142 22.0406 3.33325 21.3333 3.33325Z" fill="#EEEEEE"/>
</g>
</svg>
