<svg width="25" height="25" viewBox="0 0 25 25" fill="none" xmlns="http://www.w3.org/2000/svg">
<path d="M3.1251 10.143C3.12252 10.3014 3.16813 10.4568 3.25589 10.5886C3.34365 10.7205 3.46942 10.8226 3.61651 10.8813L11.1173 13.8821L14.1181 21.3836C14.176 21.5287 14.2762 21.6531 14.4056 21.7407C14.5349 21.8283 14.6876 21.8751 14.8439 21.875H14.8564C15.0146 21.8726 15.1683 21.8221 15.2972 21.7303C15.4261 21.6385 15.5241 21.5097 15.5782 21.361L21.8282 4.17349C21.8794 4.03366 21.8895 3.88213 21.8575 3.73674C21.8254 3.59134 21.7524 3.45814 21.6472 3.35282C21.542 3.2475 21.4088 3.17444 21.2634 3.14225C21.1181 3.11007 20.9665 3.12009 20.8267 3.17114L3.63917 9.42114C3.49039 9.47539 3.36159 9.57352 3.26979 9.70256C3.178 9.8316 3.12755 9.98546 3.1251 10.1438V10.143Z" fill="#92D083"/>
</svg>
