<svg width="32" height="32" viewBox="0 0 32 32" fill="none" xmlns="http://www.w3.org/2000/svg">
<path d="M1.33203 29.3332V13.0132C1.33225 12.5853 1.43546 12.1636 1.63295 11.784C1.83044 11.4043 2.11641 11.0777 2.4667 10.8319L15.2334 1.87188C15.4577 1.71438 15.7252 1.62988 15.9994 1.62988C16.2735 1.62988 16.541 1.71438 16.7654 1.87188L29.5307 10.8319C29.881 11.0777 30.167 11.4043 30.3644 11.784C30.5619 12.1636 30.6651 12.5853 30.6654 13.0132V29.3332C30.6654 29.6868 30.5249 30.026 30.2748 30.276C30.0248 30.5261 29.6857 30.6665 29.332 30.6665H22.2214C21.8677 30.6665 21.5286 30.5261 21.2786 30.276C21.0285 30.026 20.888 29.6868 20.888 29.3332V21.7679C20.888 21.4143 20.7476 21.0751 20.4975 20.8251C20.2475 20.575 19.9083 20.4345 19.5547 20.4345H12.4427C12.0891 20.4345 11.7499 20.575 11.4999 20.8251C11.2498 21.0751 11.1094 21.4143 11.1094 21.7679V29.3332C11.1094 29.6868 10.9689 30.026 10.7188 30.276C10.4688 30.5261 10.1297 30.6665 9.77603 30.6665H2.66536C2.31174 30.6665 1.9726 30.5261 1.72256 30.276C1.47251 30.026 1.33203 29.6868 1.33203 29.3332Z" stroke="#778892" stroke-width="2"/>
</svg>
