<svg width="19" height="20" viewBox="0 0 19 20" fill="none" xmlns="http://www.w3.org/2000/svg">
<path d="M18.9833 3.35495C18.9691 2.215 18.6171 1.06791 17.6144 0.427474C16.6384 -0.195126 15.3406 -0.182636 14.5726 0.764644C14.5103 0.841354 14.377 0.971579 14.4161 1.08397C14.4552 1.19636 14.697 1.1696 14.7983 1.22134C14.9726 1.30875 15.0419 1.48358 15.0366 1.67089C15.0295 1.88853 15.0277 3.96684 15.0188 6.83187C12.5067 6.8176 9.99289 6.80155 7.48082 6.78727C7.43282 6.16111 7.41504 5.45823 7.45949 4.6947C7.50038 3.99004 7.59104 3.28894 7.72794 2.59676C7.78838 2.29349 7.85772 1.992 7.93594 1.69408C8.02128 1.36584 8.25773 0.962662 8.23284 0.618359C8.22928 0.571976 8.21862 0.525593 8.19017 0.489914C8.12261 0.406068 7.99283 0.420341 7.88972 0.4471C7.2497 0.611224 6.62747 0.953741 6.13679 1.39795C5.98567 1.53353 5.5821 1.91886 5.21765 2.57536C4.25051 4.31293 4.17407 6.77479 4.17407 6.77479C4.12429 8.36607 4.06206 11.5915 5.75278 14.94C5.75278 14.94 6.93681 17.2876 8.63107 17.8656C8.96531 17.9798 9.05597 17.9049 9.08442 17.8674C9.21598 17.6979 8.9333 17.4054 8.84974 17.2751C8.69507 17.0361 8.56351 16.7828 8.44973 16.5205C8.21506 15.98 8.05862 15.4074 7.94306 14.8311C7.58927 13.0757 7.35993 11.2989 7.40971 9.50602H15.0188C15.0188 11.752 15.0188 13.998 15.0188 16.244C15.0188 16.69 15.2001 17.12 15.6108 17.3305C15.8579 17.4571 16.1388 17.5017 16.4144 17.5356C16.8962 17.5963 17.3886 17.6284 17.8651 17.5374C18.1442 17.4839 18.4233 17.3822 18.6313 17.1877C18.9673 16.8755 18.9727 16.451 18.9727 16.0246C18.9727 12.6404 19.0047 9.25627 18.9994 5.8721C18.9994 5.03365 18.994 4.19341 18.9833 3.35495Z" fill="#92D083"/>
<path d="M8.54783 18.708C5.47753 17.8071 4.27927 14.5424 3.62326 11.7113C3.48103 11.0941 3.34414 10.4857 3.26236 9.856C3.01702 7.95252 3.02769 5.85994 3.64282 4.02246C3.17347 4.12771 2.96191 4.53267 2.68812 4.86092C1.68721 6.05974 1.60898 7.46014 1.56098 8.85163C1.4472 12.1198 2.63656 14.4443 2.90146 14.9438C3.49881 16.0659 4.14949 16.8045 4.3415 17.0168C5.02418 17.775 5.71043 18.3012 6.23666 18.6509C5.81887 18.5474 5.22863 18.353 4.59751 17.9623C4.0126 17.6002 3.59481 17.197 3.32103 16.8883C2.92457 16.3799 2.64545 15.9321 2.46412 15.6146C1.97521 14.7654 1.3672 13.7076 1.05786 12.2893C0.970743 11.8915 0.912075 11.4865 0.755626 11.4705C0.529843 11.4473 0.275615 12.2536 0.220502 12.4267C0.0427195 12.9886 -0.00172715 13.5077 5.06791e-05 13.7825C0.0124955 14.8528 0.812515 16.9347 2.72368 18.3476C2.72368 18.3476 4.39484 19.5821 7.25358 19.6767C7.37091 19.6802 8.06249 19.6642 8.57628 19.2949C8.83051 19.1183 8.99762 18.84 8.54783 18.708Z" fill="#92D083"/>
</svg>
