<svg width="28" height="22" viewBox="0 0 28 22" fill="none" xmlns="http://www.w3.org/2000/svg">
<path fill-rule="evenodd" clip-rule="evenodd" d="M26 0.333253H11.7733C11.0626 0.33269 10.3811 0.615868 9.88 1.11992L1.05333 9.94659C0.807005 10.1949 0.668137 10.5301 0.666664 10.8799V11.1199C0.668137 11.4697 0.807005 11.8049 1.05333 12.0533L9.88 20.8799C10.3811 21.384 11.0626 21.6671 11.7733 21.6666H26C26.7364 21.6666 27.3333 21.0696 27.3333 20.3333V1.66659C27.3333 0.930207 26.7364 0.333253 26 0.333253ZM24.6667 18.9999H11.7733L3.77334 10.9999L11.7733 2.99992H24.6667V18.9999ZM13.2533 15.1199L12.5467 14.4133C12.4178 14.2923 12.3446 14.1234 12.3446 13.9466C12.3446 13.7698 12.4178 13.6009 12.5467 13.4799L15.0133 10.9999L12.5467 8.51992C12.4178 8.39894 12.3446 8.23004 12.3446 8.05326C12.3446 7.87647 12.4178 7.70757 12.5467 7.58659L13.2533 6.87992C13.3743 6.75102 13.5432 6.6779 13.72 6.6779C13.8968 6.6779 14.0657 6.75102 14.1867 6.87992L16.6667 9.34659L19.1467 6.87992C19.2676 6.75102 19.4365 6.6779 19.6133 6.6779C19.7901 6.6779 19.959 6.75102 20.08 6.87992L20.7867 7.58659C20.9156 7.70757 20.9887 7.87647 20.9887 8.05326C20.9887 8.23004 20.9156 8.39894 20.7867 8.51992L18.32 10.9999L20.7867 13.4799C20.9156 13.6009 20.9887 13.7698 20.9887 13.9466C20.9887 14.1234 20.9156 14.2923 20.7867 14.4133L20.08 15.1199C19.959 15.2488 19.7901 15.3219 19.6133 15.3219C19.4365 15.3219 19.2676 15.2488 19.1467 15.1199L16.6667 12.6533L14.1867 15.1199C14.0657 15.2488 13.8968 15.3219 13.72 15.3219C13.5432 15.3219 13.3743 15.2488 13.2533 15.1199Z" fill="#1E3B4B"/>
</svg>
