<svg width="36" height="36" viewBox="0 0 36 36" fill="none" xmlns="http://www.w3.org/2000/svg">
<path d="M33.9123 23.4036C34.488 21.7078 34.8002 19.8903 34.8002 18C34.8002 8.72157 27.2786 1.19995 18.0002 1.19995C8.72181 1.19995 1.2002 8.72157 1.2002 18C1.2002 27.2783 8.72181 34.7999 18.0002 34.7999V34.7999" stroke="white" stroke-width="2" stroke-linecap="round"/>
<path d="M26.2333 14.6523C25.4574 6.97783 22.0661 1.19995 18.0001 1.19995C13.3609 1.19995 9.6001 8.72157 9.6001 18C9.6001 27.2783 13.3609 34.7999 18.0001 34.7999" stroke="white" stroke-width="2" stroke-linecap="round"/>
<path d="M6 28.7999C8.71978 28.1955 11.6679 27.8194 14.8443 27.6716" stroke="white" stroke-width="2" stroke-linecap="round"/>
<path d="M6 7.19995C6 7.19995 11.4 8.39995 18 8.39995C24.6 8.39995 30 7.19995 30 7.19995" stroke="white" stroke-width="2" stroke-linecap="round"/>
<path fill-rule="evenodd" clip-rule="evenodd" d="M27.0002 34.8C31.308 34.8 34.8002 31.3078 34.8002 27C34.8002 22.6921 31.308 19.2 27.0002 19.2C22.6924 19.2 19.2002 22.6921 19.2002 27C19.2002 31.3078 22.6924 34.8 27.0002 34.8Z" stroke="white" stroke-width="2" stroke-linecap="round"/>
<path d="M24.9004 24.8999L29.143 29.1425" stroke="white" stroke-width="2" stroke-linecap="round"/>
<path d="M29.143 24.8999L24.9004 29.1425" stroke="white" stroke-width="2" stroke-linecap="round"/>
</svg>
