<svg width="30" height="30" viewBox="0 0 30 30" fill="none" xmlns="http://www.w3.org/2000/svg">
<g opacity="0.8">
<path d="M11.0773 21.2185C6.37618 21.7603 4 23.2487 4 24.9999C4 27.209 8.37258 28.9999 15 28.9999C21.6274 28.9999 26 27.209 26 24.9999C26 23.2768 23.7315 21.8082 19.1484 21.2454" stroke="white" stroke-width="2" stroke-linecap="round"/>
<path fill-rule="evenodd" clip-rule="evenodd" d="M14.3417 24.3867C14.7126 24.7392 15.2874 24.7392 15.6583 24.3867C17.8854 22.2696 25 15.1471 25 10.5508C25 5.10157 21 1 15 1C9 1 5 5.10157 5 10.5508C5 15.1471 12.1146 22.2696 14.3417 24.3867Z" stroke="white" stroke-width="2" stroke-linecap="round"/>
<path fill-rule="evenodd" clip-rule="evenodd" d="M15 13C16.6569 13 18 11.6569 18 10C18 8.34315 16.6569 7 15 7C13.3431 7 12 8.34315 12 10C12 11.6569 13.3431 13 15 13Z" stroke="white" stroke-width="2" stroke-linecap="round"/>
</g>
</svg>
