<svg width="30" height="30" viewBox="0 0 30 30" fill="none" xmlns="http://www.w3.org/2000/svg">
<defs>
<linearGradient id="paint0_linear_474_3592" x1="9.91618" y1="-17.1429" x2="34.5128" y2="-13.4553" gradientUnits="userSpaceOnUse">
<stop stop-color="#82D66E"/>
<stop offset="1" stop-color="#499A36"/>
</linearGradient>
</defs>
<path d="M8.4375 3.75C7.1943 3.75 6.00201 4.24386 5.12294 5.12294C4.24386 6.00201 3.75 7.1943 3.75 8.4375V10.3125C3.75 10.5611 3.84877 10.7996 4.02459 10.9754C4.2004 11.1512 4.43886 11.25 4.6875 11.25C4.93614 11.25 5.1746 11.1512 5.35041 10.9754C5.52623 10.7996 5.625 10.5611 5.625 10.3125V8.4375C5.625 7.69158 5.92132 6.97621 6.44876 6.44876C6.97621 5.92132 7.69158 5.625 8.4375 5.625H10.3125C10.5611 5.625 10.7996 5.52623 10.9754 5.35041C11.1512 5.1746 11.25 4.93614 11.25 4.6875C11.25 4.43886 11.1512 4.2004 10.9754 4.02459C10.7996 3.84877 10.5611 3.75 10.3125 3.75H8.4375ZM19.6875 3.75C19.4389 3.75 19.2004 3.84877 19.0246 4.02459C18.8488 4.2004 18.75 4.43886 18.75 4.6875C18.75 4.93614 18.8488 5.1746 19.0246 5.35041C19.2004 5.52623 19.4389 5.625 19.6875 5.625H21.5625C22.3084 5.625 23.0238 5.92132 23.5512 6.44876C24.0787 6.97621 24.375 7.69158 24.375 8.4375V10.3125C24.375 10.5611 24.4738 10.7996 24.6496 10.9754C24.8254 11.1512 25.0639 11.25 25.3125 11.25C25.5611 11.25 25.7996 11.1512 25.9754 10.9754C26.1512 10.7996 26.25 10.5611 26.25 10.3125V8.4375C26.25 7.1943 25.7561 6.00201 24.8771 5.12294C23.998 4.24386 22.8057 3.75 21.5625 3.75H19.6875ZM5.625 19.6875C5.625 19.4389 5.52623 19.2004 5.35041 19.0246C5.1746 18.8488 4.93614 18.75 4.6875 18.75C4.43886 18.75 4.2004 18.8488 4.02459 19.0246C3.84877 19.2004 3.75 19.4389 3.75 19.6875V21.5625C3.75 22.8057 4.24386 23.998 5.12294 24.8771C6.00201 25.7561 7.1943 26.25 8.4375 26.25H10.3125C10.5611 26.25 10.7996 26.1512 10.9754 25.9754C11.1512 25.7996 11.25 25.5611 11.25 25.3125C11.25 25.0639 11.1512 24.8254 10.9754 24.6496C10.7996 24.4738 10.5611 24.375 10.3125 24.375H8.4375C7.69158 24.375 6.97621 24.0787 6.44876 23.5512C5.92132 23.0238 5.625 22.3084 5.625 21.5625V19.6875ZM26.25 19.6875C26.25 19.4389 26.1512 19.2004 25.9754 19.0246C25.7996 18.8488 25.5611 18.75 25.3125 18.75C25.0639 18.75 24.8254 18.8488 24.6496 19.0246C24.4738 19.2004 24.375 19.4389 24.375 19.6875V21.5625C24.375 22.3084 24.0787 23.0238 23.5512 23.5512C23.0238 24.0787 22.3084 24.375 21.5625 24.375H19.6875C19.4389 24.375 19.2004 24.4738 19.0246 24.6496C18.8488 24.8254 18.75 25.0639 18.75 25.3125C18.75 25.5611 18.8488 25.7996 19.0246 25.9754C19.2004 26.1512 19.4389 26.25 19.6875 26.25H21.5625C22.8057 26.25 23.998 25.7561 24.8771 24.8771C25.7561 23.998 26.25 22.8057 26.25 21.5625V19.6875ZM8.4375 18.75V13.8469C8.4375 13.3496 8.63504 12.8727 8.98668 12.521C9.33831 12.1694 9.81522 11.9719 10.3125 11.9719H11.7188L12.8062 10.2469C12.9757 9.97921 13.2103 9.75886 13.488 9.6064C13.7657 9.45393 14.0776 9.37432 14.3944 9.375H15.6094C15.9257 9.37515 16.2369 9.45535 16.5139 9.60812C16.791 9.76089 17.0248 9.98128 17.1938 10.2488L18.2831 11.9719H19.6894C20.1867 11.9719 20.6636 12.1694 21.0152 12.521C21.3668 12.8727 21.5644 13.3496 21.5644 13.8469V18.75C21.5644 19.2473 21.3668 19.7242 21.0152 20.0758C20.6636 20.4275 20.1867 20.625 19.6894 20.625H10.3144C9.81709 20.625 9.34018 20.4275 8.98855 20.0758C8.63692 19.7242 8.43937 19.2473 8.43937 18.75H8.4375ZM15 17.8125C15.4973 17.8125 15.9742 17.615 16.3258 17.2633C16.6775 16.9117 16.875 16.4348 16.875 15.9375C16.875 15.4402 16.6775 14.9633 16.3258 14.6117C15.9742 14.26 15.4973 14.0625 15 14.0625C14.5027 14.0625 14.0258 14.26 13.6742 14.6117C13.3225 14.9633 13.125 15.4402 13.125 15.9375C13.125 16.4348 13.3225 16.9117 13.6742 17.2633C14.0258 17.615 14.5027 17.8125 15 17.8125Z" fill="url(#paint0_linear_474_3592)"/>
</svg>
