<svg width="34" height="14" viewBox="0 0 34 14" fill="none" xmlns="http://www.w3.org/2000/svg">
<defs>
<linearGradient id="paint0_linear_1102_2695" x1="-1" y1="-6" x2="34.4101" y2="18.8409" gradientUnits="userSpaceOnUse">
<stop stop-color="#014440"/>
<stop offset="1" stop-color="#00927D"/>
</linearGradient>
</defs>
<path d="M10.25 7.90234C10.25 11.4414 8.57422 13.2109 5.22266 13.2109C2.01172 13.2109 0.40625 11.5088 0.40625 8.10449V0.396484H2.49805V7.67383C2.49805 10.1465 3.45898 11.3828 5.38086 11.3828C7.23242 11.3828 8.1582 10.1904 8.1582 7.80566V0.396484H10.25V7.90234ZM12.6318 12.499V10.3457C12.8252 10.5215 13.0537 10.6797 13.3174 10.8203C13.5869 10.9609 13.8711 11.0811 14.1699 11.1807C14.4688 11.2744 14.7676 11.3477 15.0664 11.4004C15.3652 11.4531 15.6406 11.4795 15.8926 11.4795C16.7715 11.4795 17.4248 11.333 17.8525 11.04C18.2861 10.7471 18.5029 10.3223 18.5029 9.76562C18.5029 9.4668 18.4297 9.20898 18.2832 8.99219C18.1426 8.76953 17.9434 8.56738 17.6855 8.38574C17.4277 8.2041 17.123 8.03125 16.7715 7.86719C16.4258 7.69727 16.0537 7.52148 15.6553 7.33984C15.2275 7.11133 14.8291 6.87988 14.46 6.64551C14.0908 6.41113 13.7686 6.15332 13.4932 5.87207C13.2236 5.58496 13.0098 5.2627 12.8516 4.90527C12.6992 4.54785 12.623 4.12891 12.623 3.64844C12.623 3.05664 12.7549 2.54395 13.0186 2.11035C13.2881 1.6709 13.6396 1.31055 14.0732 1.0293C14.5127 0.742187 15.0107 0.53125 15.5674 0.396484C16.124 0.255859 16.6924 0.185547 17.2725 0.185547C18.5908 0.185547 19.5518 0.334961 20.1553 0.633789V2.69922C19.4404 2.18359 18.5205 1.92578 17.3955 1.92578C17.085 1.92578 16.7744 1.95508 16.4639 2.01367C16.1592 2.07227 15.8838 2.16895 15.6377 2.30371C15.3975 2.43848 15.2012 2.61133 15.0488 2.82227C14.8965 3.0332 14.8203 3.28809 14.8203 3.58691C14.8203 3.86816 14.8789 4.11133 14.9961 4.31641C15.1133 4.52148 15.2832 4.70898 15.5059 4.87891C15.7344 5.04883 16.0098 5.21582 16.332 5.37988C16.6602 5.53809 17.0381 5.71094 17.4658 5.89844C17.9053 6.12695 18.3184 6.36719 18.7051 6.61914C19.0977 6.87109 19.4404 7.14941 19.7334 7.4541C20.0322 7.75879 20.2666 8.09863 20.4365 8.47363C20.6123 8.84277 20.7002 9.26465 20.7002 9.73926C20.7002 10.3779 20.5713 10.917 20.3135 11.3564C20.0557 11.7959 19.707 12.1533 19.2676 12.4287C18.834 12.7041 18.333 12.9033 17.7646 13.0264C17.1963 13.1494 16.5957 13.2109 15.9629 13.2109C15.752 13.2109 15.4912 13.1934 15.1807 13.1582C14.876 13.1289 14.5625 13.082 14.2402 13.0176C13.918 12.959 13.6133 12.8857 13.3262 12.7979C13.0391 12.71 12.8076 12.6104 12.6318 12.499ZM23.0205 13V0.396484H26.6592C31.3057 0.396484 33.6289 2.44434 33.6289 6.54004C33.6289 8.48535 32.9844 10.0498 31.6953 11.2334C30.4062 12.4111 28.6777 13 26.5098 13H23.0205ZM25.1035 2.17188V11.2334H26.7734C28.2441 11.2334 29.3867 10.8291 30.2012 10.0205C31.0215 9.21191 31.4316 8.06934 31.4316 6.59277C31.4316 3.64551 29.9053 2.17188 26.8525 2.17188H25.1035Z" fill="url(#paint0_linear_1102_2695)"/>
</svg>
