<svg width="10" height="12" viewBox="0 0 10 12" fill="none" xmlns="http://www.w3.org/2000/svg">
<path fill-rule="evenodd" clip-rule="evenodd" d="M9.72796 4.8185H6.56461V0.479084C6.56461 0.334419 6.68383 0.214844 6.82925 0.214844H7.30292C7.30399 0.925891 7.5868 1.60758 8.09095 2.1115C8.59617 2.6149 9.27941 2.89729 9.9926 2.89729V4.8185H9.72796ZM9.9926 6.35003C9.9926 8.15968 9.5788 9.50864 8.75014 10.3873C7.92201 11.2665 6.6432 11.7048 4.91851 11.7048C3.30663 11.7048 2.08395 11.2665 1.24994 10.3873C0.41647 9.50811 0 8.1837 0 6.41142V0.466807C0 0.328013 0.112805 0.214844 0.252341 0.214844H3.17511C3.31411 0.215911 3.42799 0.328547 3.42799 0.466807V6.54114C3.42799 7.26393 3.56218 7.82177 3.8343 8.21359C4.25612 8.7709 5.01047 8.95721 5.64239 8.6604C5.84608 8.56431 6.02518 8.42339 6.16632 8.24936C6.43309 7.88049 6.56514 7.33813 6.56514 6.61908V5.48257H9.99313L9.9926 6.35003Z" fill="#223566"/>
<path fill-rule="evenodd" clip-rule="evenodd" d="M7.98438 0.214844H9.73526C9.88175 0.214844 9.9999 0.333885 9.9999 0.479084V2.22948C8.88789 2.22948 7.98491 1.32892 7.98491 0.216979V0.214844L7.98438 0.214844Z" fill="#FE8700"/>
</svg>
