<?xml version="1.0" encoding="UTF-8"?>
<svg fill="none" viewBox="0 0 83 83" xmlns="http://www.w3.org/2000/svg">
<defs>
<linearGradient id="a" x2="99.955" y2="46.747" gradientUnits="userSpaceOnUse">
<stop stop-color="#A3CC98" offset="0"/>
<stop stop-color="#166839" offset="1"/>
</linearGradient>
</defs>
<rect width="83" height="83" rx="30" fill="url(#a)"/>
<mask id="b" x="25" y="25" width="33" height="37" clip-rule="evenodd" fill-rule="evenodd" style="mask-type:alpha" maskUnits="userSpaceOnUse">
<path d="m57.106 39.847h-10.44v-13.712c0-0.4571 0.3934-0.835 0.8734-0.835h1.5633c0.0035 2.2469 0.9369 4.401 2.6008 5.9933 1.6673 1.5907 3.9223 2.483 6.2761 2.483v6.0709h-0.8734zm0.8734 4.8395c0 5.7183-1.3657 9.9809-4.1006 12.757-2.7331 2.7782-6.9537 4.1631-12.646 4.1631-5.3198 0-9.3551-1.3849-12.108-4.1631-2.7508-2.7782-4.1253-6.9632-4.1253-12.563v-18.784c0-0.4385 0.3723-0.7962 0.8328-0.7962h9.6462c0.4588 0.0034 0.8346 0.3593 0.8346 0.7962v19.194c0 2.2839 0.4429 4.0466 1.341 5.2848 1.3921 1.761 3.8817 2.3497 5.9673 1.4118 0.6723-0.3036 1.2633-0.7489 1.7292-1.2988 0.8804-1.1656 1.3162-2.8794 1.3162-5.1516v-3.5912h11.314l-0.0017 2.7411z" fill="#fff"/>
<path d="m51.348 25.3h5.7786c0.4835 0 0.8734 0.3762 0.8734 0.835v5.5311c-3.67 0-6.6502-2.8457-6.6502-6.3593v-0.0068h-0.0018z" fill="#fff"/>
</mask>
<g mask="url(#b)">
<rect x="15.226" y="16.921" width="51.668" height="54.461" fill="#fff"/>
</g>
</svg>
