<svg width="83" height="83" viewBox="0 0 83 83" fill="none" xmlns="http://www.w3.org/2000/svg">

<defs>
<linearGradient id="paint0_linear_3589_6253" x1="0" y1="0" x2="99.9549" y2="46.7468" gradientUnits="userSpaceOnUse">
<stop stop-color="#A3CC98"/>
<stop offset="1" stop-color="#166839"/>
</linearGradient>
</defs>
<rect width="83" height="83" rx="30" fill="url(#paint0_linear_3589_6253)"/>
<mask id="mask0_3589_6253" style="mask-type:alpha" maskUnits="userSpaceOnUse" x="20" y="20" width="21" height="22">
<path fill-rule="evenodd" clip-rule="evenodd" d="M39.6868 28.773H33.285V20.5036C33.285 20.2279 33.5263 20 33.8206 20H34.7791C34.7813 21.355 35.3537 22.6541 36.3739 23.6144C37.3963 24.5737 38.779 25.1118 40.2223 25.1118V28.773H39.6868ZM40.2223 31.6916C40.2223 35.1402 39.3849 37.7108 37.7079 39.3853C36.032 41.0607 33.444 41.8959 29.9537 41.8959C26.6917 41.8959 24.2174 41.0607 22.5295 39.3853C20.8428 37.7098 20 35.1859 20 31.8086V20.4802C20 20.2157 20.2283 20 20.5107 20H26.4256C26.7069 20.002 26.9373 20.2167 26.9373 20.4802V32.0558C26.9373 33.4332 27.2089 34.4962 27.7596 35.2429C28.6132 36.3049 30.1398 36.66 31.4187 36.0944C31.8309 35.9113 32.1933 35.6427 32.479 35.3111C33.0188 34.6081 33.2861 33.5746 33.2861 32.2043V30.0385H40.2234L40.2223 31.6916Z" fill="#fff"/>
<path fill-rule="evenodd" clip-rule="evenodd" d="M36.1572 20H39.7006C39.997 20 40.2361 20.2269 40.2361 20.5036V23.8392C37.9857 23.8392 36.1583 22.1231 36.1583 20.0041V20H36.1572Z" fill="#fff"/>
</mask>
<g mask="url(#mask0_3589_6253)">
<rect x="14.0078" y="14.9475" width="31.6819" height="32.8439" fill="white"/>
</g>
<path d="M62.9815 45.9033C62.9664 44.7093 62.5915 43.5078 61.5236 42.8369C60.4841 42.1848 59.1019 42.1979 58.284 43.1901C58.2177 43.2704 58.0757 43.4068 58.1173 43.5246C58.159 43.6423 58.4165 43.6143 58.5244 43.6685C58.71 43.76 58.7838 43.9431 58.7781 44.1393C58.7706 44.3673 58.7687 46.5442 58.7592 49.5452C56.0838 49.5303 53.4065 49.5135 50.7311 49.4985C50.68 48.8426 50.6611 48.1064 50.7084 47.3066C50.752 46.5685 50.8485 45.8342 50.9943 45.1092C51.0587 44.7915 51.1326 44.4757 51.2159 44.1636C51.3067 43.8198 51.5586 43.3975 51.5321 43.0369C51.5283 42.9883 51.5169 42.9397 51.4866 42.9023C51.4147 42.8145 51.2764 42.8294 51.1666 42.8575C50.485 43.0294 49.8223 43.3882 49.2997 43.8534C49.1388 43.9955 48.709 44.3991 48.3208 45.0867C47.2908 46.9068 47.2094 49.4854 47.2094 49.4854C47.1564 51.1522 47.0901 54.5307 48.8908 58.0381C48.8908 58.0381 50.1518 60.4972 51.9562 61.1026C52.3121 61.2222 52.4087 61.1437 52.439 61.1045C52.5791 60.927 52.2781 60.6205 52.1891 60.4841C52.0243 60.2337 51.8842 59.9684 51.7631 59.6937C51.5131 59.1275 51.3465 58.5277 51.2234 57.9241C50.8466 56.0854 50.6024 54.2242 50.6554 52.3463H58.7592C58.7592 54.6989 58.7592 57.0515 58.7592 59.404C58.7592 59.8712 58.9523 60.3215 59.3897 60.542C59.6529 60.6747 59.9521 60.7214 60.2455 60.7569C60.7587 60.8205 61.2831 60.8541 61.7906 60.7588C62.0878 60.7027 62.3851 60.5962 62.6066 60.3925C62.9645 60.0655 62.9702 59.6208 62.9702 59.1742C62.9702 55.6295 63.0042 52.0847 62.9986 48.5399C62.9986 47.6617 62.9929 46.7816 62.9815 45.9033Z" fill="white"/>
<path d="M51.8682 61.9847C48.5983 61.0411 47.3221 57.6215 46.6235 54.656C46.472 54.0095 46.3262 53.3723 46.2391 52.7127C45.9778 50.7189 45.9892 48.527 46.6443 46.6023C46.1444 46.7125 45.9191 47.1367 45.6275 47.4805C44.5616 48.7363 44.4782 50.2031 44.4271 51.6606C44.3059 55.0839 45.5726 57.5187 45.8547 58.0419C46.4909 59.2173 47.1839 59.9909 47.3884 60.2133C48.1155 61.0074 48.8463 61.5587 49.4068 61.9249C48.9618 61.8165 48.3332 61.6129 47.6611 61.2036C47.0381 60.8243 46.5932 60.402 46.3016 60.0787C45.8794 59.5462 45.5821 59.0772 45.389 58.7445C44.8683 57.8551 44.2207 56.747 43.8913 55.2614C43.7985 54.8447 43.736 54.4206 43.5694 54.4038C43.3289 54.3795 43.0582 55.2241 42.9995 55.4053C42.8101 55.9939 42.7628 56.5377 42.7647 56.8255C42.778 57.9466 43.63 60.1273 45.6654 61.6073C45.6654 61.6073 47.4452 62.9003 50.4898 62.9994C50.6148 63.0031 51.3513 62.9863 51.8985 62.5995C52.1693 62.4145 52.3473 62.123 51.8682 61.9847Z" fill="white"/>
<line x1="0.5" y1="-0.5" x2="42.0731" y2="-0.5" transform="matrix(0.71296 -0.701204 0.71296 0.701204 27.5879 57.3156)" stroke="white" stroke-linecap="round"/>


</svg>
