<svg width="18" height="20" viewBox="0 0 18 20" fill="none" xmlns="http://www.w3.org/2000/svg">
<mask id="mask0_1399_4188" style="mask-type:alpha" maskUnits="userSpaceOnUse" x="0" y="0" width="18" height="20">
<path fill-rule="evenodd" clip-rule="evenodd" d="M17.5119 7.93466H11.8174V0.455433C11.8174 0.206095 12.032 0 12.2938 0H13.1465C13.1484 1.22553 13.6575 2.40046 14.565 3.269C15.4745 4.13662 16.7045 4.62334 17.9883 4.62334V7.93466H17.5119ZM17.9883 10.5743C17.9883 13.6934 17.2434 16.0184 15.7517 17.5328C14.2609 19.0482 11.9588 19.8035 8.85412 19.8035C5.95247 19.8035 3.75145 19.0482 2.2501 17.5328C0.749713 16.0175 0 13.7348 0 10.6801V0.434272C0 0.195054 0.203067 0 0.454255 0H5.71572C5.96595 0.00184013 6.17094 0.195974 6.17094 0.434272V10.9037C6.17094 12.1495 6.4125 13.111 6.90237 13.7863C7.6617 14.7468 9.01966 15.0679 10.1572 14.5564C10.5239 14.3908 10.8463 14.1479 11.1004 13.8479C11.5806 13.2122 11.8183 12.2774 11.8183 11.038V9.07922H17.9893L17.9883 10.5743Z" fill="#223566"/>
<path fill-rule="evenodd" clip-rule="evenodd" d="M14.3716 0H17.5235C17.7872 0 17.9999 0.205175 17.9999 0.455433V3.47233C15.9981 3.47233 14.3725 1.92018 14.3725 0.00368027V0L14.3716 0Z" fill="#FE8700"/>
</mask>
<g mask="url(#mask0_1399_4188)">
<rect x="-5.33154" y="-4.57007" width="28.1819" height="29.7053" fill="#92D083"/>
</g>
</svg>
