<svg width="33" height="14" viewBox="0 0 33 14" fill="none" xmlns="http://www.w3.org/2000/svg">
<defs>
<linearGradient id="paint0_linear_1102_2696" x1="-1" y1="-6" x2="33.6784" y2="16.976" gradientUnits="userSpaceOnUse">
<stop stop-color="#014440"/>
<stop offset="1" stop-color="#00927D"/>
</linearGradient>
</defs>
<path d="M7.63086 13H0.555664V0.396484H7.34961V2.17188H2.64746V5.74023H6.98047V7.50684H2.64746V11.2334H7.63086V13ZM19.5664 7.90234C19.5664 11.4414 17.8906 13.2109 14.5391 13.2109C11.3281 13.2109 9.72266 11.5088 9.72266 8.10449V0.396484H11.8145V7.67383C11.8145 10.1465 12.7754 11.3828 14.6973 11.3828C16.5488 11.3828 17.4746 10.1904 17.4746 7.80566V0.396484H19.5664V7.90234ZM32.2666 13H29.8232L27.8105 9.625C27.6289 9.31445 27.4502 9.05078 27.2744 8.83398C27.1045 8.61133 26.9287 8.42969 26.7471 8.28906C26.5713 8.14844 26.3779 8.0459 26.167 7.98145C25.9561 7.91699 25.7188 7.88477 25.4551 7.88477H24.6113V13H22.5283V0.396484H26.6768C27.2686 0.396484 27.8135 0.466797 28.3115 0.607422C28.8096 0.748047 29.2432 0.961914 29.6123 1.24902C29.9814 1.53027 30.2686 1.88477 30.4736 2.3125C30.6846 2.73438 30.79 3.22949 30.79 3.79785C30.79 4.24316 30.7227 4.65332 30.5879 5.02832C30.459 5.39746 30.2715 5.72852 30.0254 6.02148C29.7852 6.30859 29.4922 6.55469 29.1465 6.75977C28.8066 6.96484 28.4229 7.12305 27.9951 7.23438V7.26953C28.2236 7.39844 28.4229 7.54199 28.5928 7.7002C28.7627 7.85254 28.9238 8.01074 29.0762 8.1748C29.2285 8.33887 29.3779 8.52637 29.5244 8.7373C29.6768 8.94238 29.8438 9.18262 30.0254 9.45801L32.2666 13ZM24.6113 2.09277V6.18848H26.3516C26.6738 6.18848 26.9697 6.13867 27.2393 6.03906C27.5146 5.93945 27.752 5.7959 27.9512 5.6084C28.1504 5.4209 28.3057 5.19238 28.417 4.92285C28.5283 4.65332 28.584 4.35156 28.584 4.01758C28.584 3.41406 28.3936 2.94238 28.0127 2.60254C27.6318 2.2627 27.084 2.09277 26.3691 2.09277H24.6113Z" fill="url(#paint0_linear_1102_2696)"/>
</svg>
