<svg width="18" height="18" viewBox="0 0 18 18" fill="none" xmlns="http://www.w3.org/2000/svg">
<defs>
<linearGradient id="paint0_linear_1102_2699" x1="2.25" y1="2.25" x2="18.126" y2="9.40904" gradientUnits="userSpaceOnUse">
<stop stop-color="#014440"/>
<stop offset="1" stop-color="#00927D"/>
</linearGradient>
</defs>
<path d="M11.25 13.875C10.3584 13.8758 9.4838 13.6313 8.72186 13.1684C7.95992 12.7054 7.34002 12.0417 6.93 11.25H10.5C10.9125 11.25 11.25 10.9125 11.25 10.5C11.25 10.0875 10.9125 9.75 10.5 9.75H6.435C6.3975 9.5025 6.375 9.255 6.375 9C6.375 8.745 6.3975 8.4975 6.435 8.25H10.5C10.9125 8.25 11.25 7.9125 11.25 7.5C11.25 7.0875 10.9125 6.75 10.5 6.75H6.93C7.34074 5.95889 7.96081 5.29573 8.72259 4.83285C9.48437 4.36996 10.3586 4.12511 11.25 4.125C12.1875 4.125 13.065 4.395 13.815 4.8525C14.19 5.085 14.6775 5.0475 14.9925 4.7325C15.4275 4.2975 15.33 3.585 14.805 3.2625C13.7367 2.60204 12.5059 2.25149 11.25 2.25C8.31 2.25 5.82 4.1325 4.89 6.75H3C2.5875 6.75 2.25 7.0875 2.25 7.5C2.25 7.9125 2.5875 8.25 3 8.25H4.545C4.48426 8.74816 4.48426 9.25184 4.545 9.75H3C2.5875 9.75 2.25 10.0875 2.25 10.5C2.25 10.9125 2.5875 11.25 3 11.25H4.89C5.82 13.8675 8.31 15.75 11.25 15.75C12.555 15.75 13.77 15.3825 14.805 14.7375C15.3225 14.415 15.42 13.695 14.985 13.26C14.67 12.945 14.1825 12.9075 13.8075 13.1475C13.065 13.6125 12.195 13.875 11.25 13.875Z" fill="url(#paint0_linear_1102_2699)"/>
</svg>
