<svg width="10" height="11" viewBox="0 0 10 11" fill="none" xmlns="http://www.w3.org/2000/svg">
<defs>
<linearGradient id="paint0_linear_3435_16199" x1="8.07376" y1="5.73206" x2="1.65604" y2="0.875939" gradientUnits="userSpaceOnUse">
<stop offset="0.33" stop-color="#9C8837"/>
<stop offset="0.56" stop-color="#F7E59E"/>
<stop offset="0.6" stop-color="#F0DE96"/>
<stop offset="0.67" stop-color="#DECB80"/>
<stop offset="0.75" stop-color="#C0AC5D"/>
<stop offset="0.79" stop-color="#B39F4D"/>
</linearGradient>
<linearGradient id="paint1_linear_3435_16199" x1="5.67627" y1="8.89889" x2="-0.74145" y2="4.04277" gradientUnits="userSpaceOnUse">
<stop offset="0.33" stop-color="#9C8837"/>
<stop offset="0.56" stop-color="#F7E59E"/>
<stop offset="0.6" stop-color="#F0DE96"/>
<stop offset="0.67" stop-color="#DECB80"/>
<stop offset="0.75" stop-color="#C0AC5D"/>
<stop offset="0.79" stop-color="#B39F4D"/>
</linearGradient>
<linearGradient id="paint2_linear_3435_16199" x1="7.57481" y1="6.39041" x2="1.15829" y2="1.53448" gradientUnits="userSpaceOnUse">
<stop offset="0.33" stop-color="#9C8837"/>
<stop offset="0.56" stop-color="#F7E59E"/>
<stop offset="0.6" stop-color="#F0DE96"/>
<stop offset="0.67" stop-color="#DECB80"/>
<stop offset="0.75" stop-color="#C0AC5D"/>
<stop offset="0.79" stop-color="#B39F4D"/>
</linearGradient>
<linearGradient id="paint3_linear_3435_16199" x1="7.58635" y1="6.37657" x2="1.16959" y2="1.51951" gradientUnits="userSpaceOnUse">
<stop offset="0.33" stop-color="#9C8837"/>
<stop offset="0.56" stop-color="#F7E59E"/>
<stop offset="0.6" stop-color="#F0DE96"/>
<stop offset="0.67" stop-color="#DECB80"/>
<stop offset="0.75" stop-color="#C0AC5D"/>
<stop offset="0.79" stop-color="#B39F4D"/>
</linearGradient>
</defs>
<path d="M9.99112 1.76066C9.98363 1.16242 9.79826 0.560436 9.27024 0.224337C8.75626 -0.102401 8.07282 -0.0958472 7.66838 0.40128C7.63561 0.441537 7.5654 0.50988 7.58599 0.568861C7.60659 0.627842 7.73391 0.6138 7.78728 0.64095C7.87903 0.686824 7.91554 0.778573 7.91273 0.876875C7.90899 0.991093 7.90805 2.08178 7.90337 3.58533C6.5805 3.57784 5.2567 3.56941 3.93384 3.56192C3.90856 3.23331 3.8992 2.86445 3.9226 2.46375C3.94414 2.09395 3.99188 1.72602 4.06397 1.36277C4.0958 1.20361 4.13231 1.04539 4.17351 0.889045C4.21845 0.716782 4.34296 0.505199 4.32985 0.32451C4.32798 0.300169 4.32236 0.275827 4.30739 0.257103C4.27181 0.213101 4.20347 0.220592 4.14917 0.234635C3.81213 0.320766 3.48446 0.500519 3.22606 0.733635C3.14648 0.804787 2.93397 1.00701 2.74204 1.35153C2.23274 2.2634 2.19249 3.55537 2.19249 3.55537C2.16627 4.39047 2.13351 6.08314 3.02384 7.8404C3.02384 7.8404 3.64736 9.07246 4.53957 9.37579C4.71557 9.43571 4.76332 9.39638 4.7783 9.37579C4.84758 9.28685 4.69872 9.13331 4.65472 9.06497C4.57327 8.93951 4.50399 8.80657 4.44407 8.66895C4.32049 8.38528 4.23811 8.08475 4.17725 7.78236C3.99095 6.86113 3.87018 5.92866 3.89639 4.98777H7.90337V8.52384C7.90337 8.75789 7.99886 8.98352 8.21513 9.09399C8.34526 9.16046 8.49318 9.18386 8.63829 9.20165C8.89201 9.23348 9.15134 9.25033 9.40224 9.20165C9.54922 9.17357 9.69621 9.1202 9.80575 9.01816C9.98269 8.85432 9.9855 8.6315 9.9855 8.40775C9.9855 6.63176 10.0024 4.85577 9.99954 3.07978C9.99954 2.63882 9.9958 2.1988 9.99112 1.75785V1.76066Z" fill="url(#paint0_linear_3435_16199)"/>
<path d="M4.50132 9.81918C2.88449 9.3464 2.25348 7.63313 1.90802 6.14737C1.83313 5.82344 1.76104 5.50419 1.71797 5.17371C1.58877 4.17477 1.59439 3.0766 1.91832 2.1123C1.67116 2.16754 1.55975 2.38006 1.41558 2.55232C0.888489 3.18146 0.847297 3.91638 0.822019 4.64662C0.762101 6.36176 1.38843 7.58164 1.52792 7.84378C1.84249 8.43266 2.18514 8.82025 2.28625 8.93166C2.64576 9.32955 3.00713 9.60573 3.28425 9.78922C3.06424 9.73492 2.75342 9.63288 2.42107 9.42785C2.11305 9.2378 1.89304 9.02622 1.74887 8.86425C1.54009 8.59743 1.39311 8.36244 1.29761 8.1958C1.04016 7.75016 0.719972 7.19499 0.557071 6.4507C0.511197 6.24193 0.480302 6.02941 0.397916 6.02098C0.279017 6.00881 0.145139 6.43198 0.116117 6.52279C0.0224955 6.8177 -0.000909521 7.09013 2.66886e-05 7.23431C0.00658016 7.79604 0.427875 8.88859 1.4343 9.63007C1.4343 9.63007 2.31434 10.2779 3.81976 10.3275C3.88155 10.3294 4.24574 10.321 4.5163 10.1272C4.64925 10.0317 4.73725 9.88566 4.50132 9.81731V9.81918Z" fill="url(#paint1_linear_3435_16199)"/>
<path d="M1.92033 2.10742C1.92033 2.10742 1.91939 2.11117 1.91846 2.11304C1.92033 2.11304 1.9222 2.1121 1.92407 2.11117L1.92033 2.10742Z" fill="url(#paint2_linear_3435_16199)"/>
<path d="M1.92041 2.10747L1.92509 2.11215L1.94382 2.08594L1.92041 2.10747Z" fill="url(#paint3_linear_3435_16199)"/>
</svg>
