<svg width="83" height="83" viewBox="0 0 83 83" fill="none" xmlns="http://www.w3.org/2000/svg">
<defs>
<linearGradient id="paint0_linear_11_4928" x1="0" y1="0" x2="99.9549" y2="46.7468" gradientUnits="userSpaceOnUse">
<stop stop-color="#A3CC98"/>
<stop offset="1" stop-color="#166839"/>
</linearGradient>
</defs>
<rect width="83" height="83" rx="30" fill="url(#paint0_linear_11_4928)"/>
<path d="M56.9707 29.8269C56.946 27.847 56.3346 25.8548 54.5931 24.7424C52.898 23.6611 50.6439 23.6828 49.31 25.328C49.2019 25.4613 48.9703 25.6875 49.0383 25.8827C49.1062 26.0779 49.5261 26.0314 49.7021 26.1212C50.0047 26.2731 50.1252 26.5767 50.1159 26.902C50.1035 27.28 50.1004 30.8897 50.085 35.8657C45.722 35.8409 41.3559 35.813 36.9929 35.7883C36.9096 34.7007 36.8787 33.48 36.9559 32.1538C37.0269 30.93 37.1844 29.7123 37.4221 28.5101C37.5271 27.9834 37.6475 27.4597 37.7834 26.9423C37.9316 26.3722 38.3423 25.672 38.299 25.074C38.2929 24.9934 38.2743 24.9129 38.2249 24.8509C38.1076 24.7053 37.8822 24.7301 37.7031 24.7765C36.5915 25.0616 35.5108 25.6565 34.6586 26.428C34.3961 26.6635 33.6952 27.3327 33.0622 28.4729C31.3825 31.4908 31.2497 35.7666 31.2497 35.7666C31.1632 38.5303 31.0552 44.1323 33.9916 49.948C33.9916 49.948 36.0481 54.0255 38.9907 55.0294C39.5712 55.2277 39.7287 55.0975 39.7781 55.0324C40.0066 54.7381 39.5156 54.23 39.3705 54.0038C39.1019 53.5886 38.8734 53.1486 38.6757 52.6932C38.2682 51.7543 37.9964 50.7598 37.7957 49.759C37.1813 46.7101 36.783 43.6241 36.8694 40.5102H50.085C50.085 44.4111 50.085 48.312 50.085 52.2129C50.085 52.9875 50.4 53.7342 51.1132 54.0998C51.5424 54.3198 52.0303 54.3973 52.5089 54.4561C53.3457 54.5615 54.201 54.6173 55.0285 54.4592C55.5133 54.3663 55.9981 54.1897 56.3593 53.852C56.9429 53.3097 56.9522 52.5723 56.9522 51.8318C56.9522 45.9541 57.0078 40.0764 56.9985 34.1988C56.9985 32.7425 56.9892 31.2832 56.9707 29.8269Z" fill="white"/>
<path d="M38.846 56.4926C33.5135 54.9279 31.4323 49.2578 30.2929 44.3406C30.0459 43.2686 29.8082 42.212 29.6661 41.1183C29.24 37.8123 29.2585 34.1779 30.3269 30.9865C29.5117 31.1693 29.1443 31.8727 28.6688 32.4428C26.9304 34.5249 26.7945 36.9571 26.7111 39.3739C26.5135 45.0502 28.5792 49.0874 29.0393 49.9549C30.0768 51.9038 31.2069 53.1866 31.5404 53.5553C32.7261 54.8721 33.918 55.7861 34.8319 56.3934C34.1063 56.2137 33.0812 55.876 31.985 55.1975C30.9692 54.5685 30.2435 53.8682 29.768 53.3322C29.0795 52.4492 28.5947 51.6715 28.2797 51.1199C27.4306 49.6451 26.3746 47.8077 25.8373 45.3445C25.686 44.6536 25.5841 43.9502 25.3124 43.9224C24.9202 43.8821 24.4787 45.2825 24.383 45.5831C24.0742 46.5591 23.997 47.4607 24.0001 47.9379C24.0217 49.7969 25.4112 53.4128 28.7305 55.8667C28.7305 55.8667 31.633 58.0108 36.5981 58.175C36.8019 58.1812 38.0031 58.1533 38.8954 57.5119C39.337 57.2052 39.6272 56.7219 38.846 56.4926Z" fill="white"/>
</svg>
