<svg width="24" height="26" viewBox="0 0 24 26" fill="none" xmlns="http://www.w3.org/2000/svg">
<path d="M8.86176 17.9749C5.1009 18.4083 3.19995 19.599 3.19995 21C3.19995 22.7673 6.69802 24.2 12 24.2C17.3019 24.2 20.8 22.7673 20.8 21C20.8 19.6215 18.9852 18.4466 15.3187 17.9963" stroke="#1E3B4B" stroke-width="2" stroke-linecap="round"/>
<path fill-rule="evenodd" clip-rule="evenodd" d="M11.3468 20.3886C11.7163 20.7425 12.2837 20.7425 12.6532 20.3886C14.5625 18.5594 20 13.0347 20 9.44068C20 5.08131 16.8 1.80005 12 1.80005C7.2 1.80005 4 5.08131 4 9.44068C4 13.0347 9.43748 18.5594 11.3468 20.3886Z" stroke="#1E3B4B" stroke-width="2" stroke-linecap="round"/>
<path fill-rule="evenodd" clip-rule="evenodd" d="M12 11.4001C13.3255 11.4001 14.4 10.3256 14.4 9.0001C14.4 7.67461 13.3255 6.6001 12 6.6001C10.6745 6.6001 9.59998 7.67461 9.59998 9.0001C9.59998 10.3256 10.6745 11.4001 12 11.4001Z" stroke="#1E3B4B" stroke-width="2" stroke-linecap="round"/>
</svg>
