<svg width="330" height="52" viewBox="0 0 330 52" fill="none" xmlns="http://www.w3.org/2000/svg">
<defs>
<linearGradient id="paint0_linear_1_1673" x1="202.962" y1="-1.55343" x2="227.974" y2="2.53391" gradientUnits="userSpaceOnUse">
<stop stop-color="#82D66E"/>
<stop offset="1" stop-color="#499A36"/>
</linearGradient>
<linearGradient id="paint1_linear_1_1673" x1="115.988" y1="-1.01466" x2="145.979" y2="5.00295" gradientUnits="userSpaceOnUse">
<stop stop-color="#82D66E"/>
<stop offset="1" stop-color="#499A36"/>
</linearGradient>
<linearGradient id="paint2_linear_1_1673" x1="86.3522" y1="-1.01466" x2="115.456" y2="4.63843" gradientUnits="userSpaceOnUse">
<stop stop-color="#82D66E"/>
<stop offset="1" stop-color="#499A36"/>
</linearGradient>
<linearGradient id="paint3_linear_1_1673" x1="59.1311" y1="-1.01466" x2="84.9184" y2="3.38669" gradientUnits="userSpaceOnUse">
<stop stop-color="#82D66E"/>
<stop offset="1" stop-color="#499A36"/>
</linearGradient>
<linearGradient id="paint4_linear_1_1673" x1="148.001" y1="-0.87875" x2="175.191" y2="4.06798" gradientUnits="userSpaceOnUse">
<stop stop-color="#82D66E"/>
<stop offset="1" stop-color="#499A36"/>
</linearGradient>
<linearGradient id="paint5_linear_1_1673" x1="174.137" y1="-1.65412" x2="202.238" y2="3.5299" gradientUnits="userSpaceOnUse">
<stop stop-color="#82D66E"/>
<stop offset="1" stop-color="#499A36"/>
</linearGradient>
<linearGradient id="paint6_linear_1_1673" x1="283.374" y1="-1.01466" x2="309.145" y2="3.38096" gradientUnits="userSpaceOnUse">
<stop stop-color="#82D66E"/>
<stop offset="1" stop-color="#499A36"/>
</linearGradient>
<linearGradient id="paint7_linear_1_1673" x1="254.755" y1="-1.01466" x2="283.847" y2="4.63361" gradientUnits="userSpaceOnUse">
<stop stop-color="#82D66E"/>
<stop offset="1" stop-color="#499A36"/>
</linearGradient>
<linearGradient id="paint8_linear_1_1673" x1="229.797" y1="-1.02678" x2="254.755" y2="3.08557" gradientUnits="userSpaceOnUse">
<stop stop-color="#82D66E"/>
<stop offset="1" stop-color="#499A36"/>
</linearGradient>
<linearGradient id="paint9_linear_1_1673" x1="311.754" y1="-0.876065" x2="338.947" y2="4.07286" gradientUnits="userSpaceOnUse">
<stop stop-color="#82D66E"/>
<stop offset="1" stop-color="#499A36"/>
</linearGradient>
<linearGradient id="paint10_linear_1_1673" x1="7.69045" y1="-27.2159" x2="38.7205" y2="-23.9855" gradientUnits="userSpaceOnUse">
<stop stop-color="#82D66E"/>
<stop offset="1" stop-color="#499A36"/>
</linearGradient>
<linearGradient id="paint11_linear_1_1673" x1="26.2949" y1="-37.5253" x2="57.312" y2="-34.2976" gradientUnits="userSpaceOnUse">
<stop stop-color="#82D66E"/>
<stop offset="1" stop-color="#499A36"/>
</linearGradient>
</defs>
<path d="M196.665 39.0976V18.1004L208.068 18.0193H208.649H209.221L209.777 18.0323L210.32 18.0454L210.845 18.0744L211.354 18.1004L211.837 18.1294L212.307 18.1729L212.657 18.199L213.003 18.2396L213.326 18.2801L213.662 18.3367L213.972 18.3917L214.28 18.4613L214.592 18.5323L214.878 18.6149L215.163 18.712L215.437 18.7931L215.711 18.8902L215.956 18.9888L216.19 19.0989L216.428 19.2091L216.638 19.3192L216.851 19.4293L217.248 19.6786L217.604 19.9423L217.928 20.2322L218.227 20.5235L218.488 20.8278L218.723 21.1742L218.934 21.5335L219.12 21.9219L219.268 22.3378L219.393 22.7653L219.469 23.2088L219.518 23.6653L219.53 23.9131V24.1624L219.518 24.4145L219.503 24.6623L219.469 24.8971L219.43 25.1319L219.378 25.3681L219.319 25.5898L219.256 25.8101L219.17 26.0303L219.084 26.2521L218.972 26.4593L218.86 26.668L218.733 26.8752L218.586 27.0825L218.437 27.2766L218.276 27.4694L218.101 27.665L217.917 27.8447L217.716 28.0244L217.504 28.1911L217.296 28.3447L217.06 28.5084L216.813 28.6476L216.549 28.7997L216.266 28.9374L215.956 29.0881L215.619 29.2272L215.249 29.3794L214.862 29.5316L214.443 29.6721L213.998 29.8229L219.64 38.9034H211.889L205.402 27.3172L205.662 27.3592L205.936 27.3868L206.489 27.4158L207.036 27.4303L207.297 27.4447H207.547L208.239 27.4303H208.589L208.935 27.4158L209.272 27.3868L209.592 27.3448L209.889 27.2882L210.174 27.2071L210.299 27.1665L210.423 27.11L210.523 27.0709L210.622 26.9984L210.797 26.8752L210.943 26.7375L211.068 26.5854L211.192 26.4332L211.316 26.2666L211.442 26.0869L211.552 25.9072L211.663 25.7275L211.736 25.5478L211.816 25.3681L211.861 25.1724L211.898 24.9797L211.912 24.787L211.898 24.5928L211.889 24.4406L211.861 24.2725L211.816 24.1203L211.764 23.9827L211.687 23.8319L211.614 23.6943L211.515 23.5696L211.403 23.4421L211.281 23.3204L211.144 23.1929L210.995 23.0972L210.834 23.0016L210.646 22.9045L210.448 22.8219L210.236 22.7509L210.013 22.6827L209.765 22.6277L209.482 22.5856L209.171 22.5451L208.837 22.5016L208.463 22.4741L208.056 22.461L207.62 22.448H207.16H206.489L205.808 22.461L204.38 22.5016L204.568 39.0976H196.665Z" fill="url(#paint0_linear_1_1673)"/>
<path d="M108.339 18.3508H118.424L122.318 31.0413L126.192 18.3508H136.25V39.206H129.984V23.3041L125.123 39.206H119.455L114.615 23.3041V39.206H108.339V18.3508Z" fill="url(#paint1_linear_1_1673)"/>
<path d="M95.1133 31.25L92.3722 23.7476L89.6417 31.25H95.1133ZM96.7261 35.7613H87.9797L86.7768 39.206H78.9473L88.2645 18.3508H96.6383L105.967 39.206H97.941L96.7261 35.7613Z" fill="url(#paint2_linear_1_1673)"/>
<path d="M52.6243 18.3508H60.2782V25.6431H68.6639V18.3508H76.367V39.206H68.6639V30.7776H60.2782V39.206H52.6243V18.3508Z" fill="url(#paint3_linear_1_1673)"/>
<path d="M149.177 28.1342L151.087 25.7127L152.972 23.2925L153.914 22.0593L154.833 20.8434L155.737 19.5986L156.618 18.3537L160.886 18.3668L165.152 18.3537L157.027 28.0545L166.244 39.0596L161.753 39.0292L159.508 39.0451L157.25 39.0596L156.928 38.5741L156.596 38.0785L156.222 37.551L155.825 36.9989L155.403 36.4018L154.956 35.7946L154.497 35.1599L154.001 34.4802L153.481 33.7875L152.948 33.0673L152.378 32.3079L151.781 31.5326L151.173 30.7297L150.529 29.8863L149.871 29.0284L149.177 28.1342ZM141.114 18.3508H148.893V39.0553H141.114V18.3508Z" fill="url(#paint4_linear_1_1673)"/>
<path d="M192.993 24.7465L192.968 24.3871L192.916 24.0263L192.856 23.6799L192.78 23.335L192.682 22.9872L192.57 22.6554L192.431 22.338L192.282 22.0192L192.124 21.7134L191.95 21.4091L191.762 21.1207L191.564 20.8439L191.343 20.5671L191.119 20.3178L190.884 20.0686L190.624 19.8208L190.364 19.5976L190.091 19.3903L189.803 19.1831L189.507 19.0034L189.209 18.8223L188.899 18.6701L188.575 18.531L188.243 18.3904L187.906 18.2803L187.559 18.1832L187.213 18.1006L186.852 18.0455L186.493 17.9904L186.132 17.9644H185.762H174.259H173.886L173.514 17.9904L173.156 18.0455L172.794 18.1006L172.448 18.1832L172.1 18.2803L171.764 18.3904L171.442 18.531L171.118 18.6701L170.81 18.8223L170.501 19.0034L170.215 19.1831L169.93 19.3903L169.656 19.5976L169.386 19.8208L169.136 20.0686L168.902 20.3178L168.665 20.5671L168.453 20.8439L168.256 21.1207L168.07 21.4091L167.882 21.7134L167.733 22.0148L167.587 22.3322L167.449 22.651L167.337 22.9829L167.238 23.3307L167.162 23.6756L167.101 24.0234L167.051 24.3842L167.025 24.7436L167.012 25.1161V31.9258L167.025 32.2881L167.051 32.6474L167.101 33.0068L167.162 33.3677L167.238 33.7155L167.337 34.0459L167.449 34.3778L167.587 34.7111L167.733 35.0284L167.882 35.3342L168.071 35.6429L168.259 35.9342L168.456 36.2095L168.666 36.4733L168.903 36.7356L169.138 36.9863L169.387 37.2196L169.66 37.4587L169.933 37.666L170.22 37.8746L170.505 38.0543L170.814 38.234L171.122 38.3876L171.444 38.5239L171.768 38.6615L172.103 38.7717L172.452 38.8688L172.798 38.9514L173.158 39.0079L173.518 39.063L173.889 39.0919H174.26H185.764H186.133L186.494 39.063L186.855 39.0079L187.215 38.9514L187.561 38.8688L187.909 38.7717L188.245 38.6615L188.578 38.5239L188.901 38.3876L189.211 38.234L189.509 38.0543L189.806 37.8746L190.093 37.666L190.366 37.4587L190.627 37.2196L190.887 36.9863L191.122 36.7356L191.346 36.4733L191.566 36.2095L191.765 35.9342L191.952 35.6429L192.127 35.34L192.285 35.0342L192.434 34.7169L192.572 34.3836L192.684 34.0517L192.783 33.7198L192.859 33.3735L192.918 33.0112L192.97 32.6503L192.996 32.2924L193.009 31.9301V25.1204L192.993 24.7465ZM186.667 26.7812V30.2679V30.449L186.654 30.6432L186.63 30.8229L186.59 31.0041L186.503 31.349L186.381 31.691L186.221 32.0113L186.036 32.317L185.825 32.5909L185.575 32.8561L185.315 33.0894L185.028 33.3126L184.719 33.4909L184.397 33.6416L184.063 33.7691L183.702 33.8677L183.328 33.9213L182.957 33.9358H177.065L176.681 33.9213L176.32 33.8677L175.961 33.7691L175.611 33.6416L175.289 33.4909L174.979 33.3126L174.695 33.0894L174.434 32.8561L174.198 32.5909L173.987 32.317L173.79 32.0113L173.641 31.691L173.516 31.349L173.42 31.0041L173.394 30.8229L173.367 30.6432L173.354 30.449L173.342 30.2679V26.7812L173.354 26.587L173.367 26.4073L173.394 26.2145L173.42 26.0334L173.516 25.687L173.641 25.3552L173.79 25.0233L173.987 24.732L174.198 24.4422L174.434 24.1784L174.695 23.9422L174.979 23.7335L175.289 23.5394L175.611 23.3857L175.961 23.2611L176.32 23.1785L176.681 23.1205L177.065 23.0945H182.957L183.328 23.1205L183.702 23.1785L184.063 23.2611L184.397 23.3857L184.719 23.5394L185.028 23.7335L185.315 23.9422L185.575 24.1784L185.825 24.4422L186.036 24.732L186.221 25.0233L186.381 25.3552L186.503 25.687L186.59 26.0334L186.63 26.2145L186.654 26.4073L186.667 26.587V26.7812Z" fill="url(#paint5_linear_1_1673)"/>
<path d="M276.872 18.3508H284.027L293.369 29.8921V18.3508H300.598V39.206H293.369L284.073 27.7459V39.206H276.872V18.3508Z" fill="url(#paint6_linear_1_1673)"/>
<path d="M263.518 31.25L260.767 23.7476L258.036 31.25H263.518ZM265.119 35.7613H256.388L255.182 39.206H247.354L256.671 18.3508H265.03L274.362 39.206H266.335L265.119 35.7613Z" fill="url(#paint7_linear_1_1673)"/>
<path d="M231.241 34.7222H235.158H235.393H235.631L235.854 34.7063L236.077 34.6918L236.276 34.6657L236.471 34.6382L236.658 34.6106L236.843 34.5817L237.021 34.5396L237.177 34.5005L237.33 34.4411L237.467 34.386L237.604 34.3309L237.728 34.2759L237.84 34.2063L237.952 34.1382L238.136 33.9846L238.3 33.8194L238.447 33.6252L238.56 33.4455L238.643 33.2383L238.706 33.0151L238.742 32.7803L238.755 32.5456L238.742 32.3108L238.706 32.1036L238.643 31.8949L238.56 31.7152L238.447 31.534L238.308 31.3688L238.148 31.2036L237.952 31.0645L237.85 30.9949L237.741 30.9283L237.616 30.8717L237.479 30.8152L237.331 30.7587L237.178 30.7196L237.021 30.6776L236.844 30.6355L236.67 30.6094L236.473 30.5819L236.279 30.5515L236.065 30.5254L235.856 30.5109L235.62 30.4964H235.382H235.135H231.24V34.7164L231.241 34.7222ZM231.241 26.53H234.576H234.799L235.009 26.5155L235.407 26.4865L235.767 26.4445L236.102 26.3909L236.4 26.3199L236.659 26.2373L236.884 26.1242L237.081 26.0011L237.242 25.8619L237.39 25.7112L237.503 25.5446L237.602 25.3794L237.676 25.1707L237.74 24.962L237.763 24.7417L237.777 24.5069L237.763 24.2852L237.74 24.0765L237.676 23.8809L237.602 23.6882L237.503 23.5201L237.377 23.3563L237.241 23.2172L237.079 23.0781L236.883 22.9549L236.658 22.8592L236.399 22.7737L236.114 22.6911L235.792 22.6361L235.431 22.6071L235.048 22.5795L234.628 22.565H231.241V26.53ZM223.511 18.3508H237.862L238.309 18.3639L238.733 18.3798L239.153 18.4073L239.55 18.4479L239.947 18.503L240.32 18.5595L240.691 18.6421L241.041 18.7247L241.371 18.8218L241.697 18.9305L242.007 19.0551L242.304 19.1943L242.601 19.3319L242.863 19.5L243.122 19.6638L243.373 19.8449L243.607 20.0246L243.832 20.2333L244.029 20.4275L244.216 20.6347L244.388 20.842L244.549 21.0637L244.687 21.2854L244.826 21.5216L244.935 21.7434L245.02 21.9926L245.108 22.2274L245.184 22.4752L245.234 22.7389L245.273 23.0027L245.294 23.265V23.5418V23.7621L245.283 23.9997L245.246 24.2186L245.208 24.4272L245.172 24.6504L245.109 24.8576L245.036 25.0663L244.96 25.262L244.862 25.4547L244.762 25.6475L244.649 25.8416L244.526 26.0213L244.388 26.1996L244.252 26.3822L244.091 26.5474L243.93 26.7141L243.681 26.9372L243.422 27.13L243.121 27.3227L242.802 27.5039L242.452 27.6705L242.083 27.8372L241.684 27.9734L241.25 28.1125L241.585 28.1806L241.896 28.2516L242.207 28.3342L242.504 28.4328L242.788 28.527L243.061 28.6241L243.322 28.7357L243.569 28.8472L243.82 28.9719L244.043 29.0965L244.268 29.2211L244.462 29.3574L244.661 29.5095L244.848 29.6486L245.02 29.8153L245.181 29.966L245.342 30.1312L245.479 30.3124L245.617 30.4921L245.738 30.6718L245.85 30.8529L245.953 31.0457L246.048 31.2543L246.136 31.463L246.199 31.6717L246.272 31.8804L246.323 32.1007L246.36 32.3209L246.396 32.5557L246.42 32.7934L246.433 33.0252L246.446 33.2774L246.433 33.6759L246.384 34.0643L246.323 34.4498L246.223 34.8266L246.102 35.1729L245.939 35.5338L245.766 35.8656L245.556 36.1975L245.321 36.5178L245.059 36.8061L244.788 37.0829L244.488 37.3612L244.182 37.5945L243.832 37.8293L243.472 38.0379L243.1 38.2466L242.84 38.3568L242.55 38.4684L242.244 38.5654L241.897 38.6481L241.514 38.7321L241.102 38.7988L240.657 38.8683L240.184 38.9248L239.864 38.9654L239.564 38.993L239.266 39.0219L238.993 39.0495L238.733 39.0756L238.485 39.106L238.248 39.1205L238.026 39.1451L237.816 39.164L237.628 39.177L237.442 39.1915H237.281L237.12 39.2045H236.988L236.86 39.219H236.75H223.514V18.3508H223.511Z" fill="url(#paint8_linear_1_1673)"/>
<path d="M312.932 28.1342L314.829 25.7127L316.728 23.2925L317.657 22.0593L318.586 20.8434L319.484 19.5986L320.361 18.3537L324.629 18.3668L328.897 18.3537L320.771 28.0545L330 39.0567L325.494 39.0263L323.248 39.0422L321.002 39.0567L320.68 38.5712L320.334 38.0756L319.963 37.5496L319.565 36.996L319.154 36.3989L318.708 35.7917L318.237 35.157L317.739 34.4773L317.231 33.7846L316.686 33.0644L316.115 32.305L315.532 31.5297L314.91 30.7268L314.278 29.8834L313.61 29.0255L312.932 28.1342ZM304.865 18.3508H312.631V39.0553H304.865V18.3508Z" fill="url(#paint9_linear_1_1673)"/>
<path d="M14.9857 10.3093H28.062L13.0643 50.7211H0L14.9857 10.3093Z" fill="url(#paint10_linear_1_1673)"/>
<path d="M33.5948 0H46.6577L31.672 40.4118H18.6077L33.5948 0Z" fill="url(#paint11_linear_1_1673)"/>
</svg>
