<svg width="83" height="83" viewBox="0 0 83 83" fill="none" xmlns="http://www.w3.org/2000/svg">
<defs>
<linearGradient id="paint0_linear_11_4907" x1="0" y1="0" x2="99.9549" y2="46.7468" gradientUnits="userSpaceOnUse">
<stop stop-color="#A3CC98"/>
<stop offset="1" stop-color="#166839"/>
</linearGradient>
</defs>
<rect width="83" height="83" rx="30" fill="url(#paint0_linear_11_4907)"/>
<mask id="mask0_11_4907" style="mask-type:alpha" maskUnits="userSpaceOnUse" x="25" y="25" width="33" height="37">
<path fill-rule="evenodd" clip-rule="evenodd" d="M57.1058 39.8472H46.6656V26.135C46.6656 25.6779 47.059 25.3 47.539 25.3H49.1023C49.1058 27.5469 50.0392 29.701 51.7031 31.2933C53.3704 32.884 55.6254 33.7763 57.9792 33.7763V39.8472H57.1058ZM57.9792 44.6867C57.9792 50.405 56.6135 54.6676 53.8786 57.4441C51.1455 60.2223 46.9249 61.6072 41.2329 61.6072C35.9131 61.6072 31.8778 60.2223 29.1253 57.4441C26.3745 54.6659 25 50.4809 25 44.8807V26.0962C25 25.6577 25.3723 25.3 25.8328 25.3H35.479C35.9378 25.3034 36.3136 25.6593 36.3136 26.0962V45.2906C36.3136 47.5745 36.7565 49.3372 37.6546 50.5754C39.0467 52.3364 41.5363 52.9251 43.6219 51.9872C44.2942 51.6836 44.8852 51.2383 45.3511 50.6884C46.2315 49.5228 46.6673 47.809 46.6673 45.5368V41.9456H57.9809L57.9792 44.6867Z" fill="#223566"/>
<path fill-rule="evenodd" clip-rule="evenodd" d="M51.3481 25.3H57.1267C57.6102 25.3 58.0001 25.6762 58.0001 26.135V31.6661C54.3301 31.6661 51.3499 28.8204 51.3499 25.3068V25.3H51.3481Z" fill="#FE8700"/>
</mask>
<g mask="url(#mask0_11_4907)">
<rect x="15.2256" y="16.9214" width="51.6678" height="54.4607" fill="white"/>
</g>
</svg>
